<svg width="33" height="33" viewBox="0 0 33 33" fill="none" xmlns="http://www.w3.org/2000/svg">
<path d="M29.9372 25.717C29.4336 26.8699 28.8375 27.9312 28.1468 28.9069C27.2054 30.2371 26.4346 31.1578 25.8405 31.6691C24.9196 32.5083 23.933 32.9381 22.8764 32.9625C22.1179 32.9625 21.2032 32.7487 20.1384 32.3148C19.0701 31.8829 18.0884 31.6691 17.1908 31.6691C16.2493 31.6691 15.2396 31.8829 14.1597 32.3148C13.078 32.7487 12.2067 32.9748 11.5405 32.9972C10.5273 33.0399 9.5174 32.5979 8.50936 31.6691C7.86598 31.113 7.06123 30.1597 6.09718 28.8091C5.06283 27.367 4.21245 25.6946 3.54624 23.788C2.83276 21.7286 2.4751 19.7344 2.4751 17.8038C2.4751 15.5922 2.95733 13.6848 3.92323 12.0864C4.68234 10.8025 5.69223 9.78971 6.95619 9.04621C8.22015 8.30272 9.58585 7.92384 11.0566 7.8996C11.8613 7.8996 12.9167 8.14628 14.2281 8.63108C15.5358 9.11751 16.3755 9.36418 16.7437 9.36418C17.0189 9.36418 17.9517 9.07575 19.5331 8.50071C21.0285 7.96743 22.2906 7.74662 23.3245 7.8336C26.1262 8.05767 28.2311 9.15213 29.6309 11.1239C27.1252 12.6284 25.8857 14.7357 25.9104 17.439C25.933 19.5446 26.7038 21.2968 28.2188 22.688C28.9053 23.3338 29.672 23.8328 30.5251 24.1873C30.3401 24.7189 30.1448 25.2281 29.9372 25.717ZM23.5116 0.660188C23.5116 2.31056 22.9031 3.85152 21.6904 5.27781C20.2268 6.97338 18.4566 7.95317 16.5369 7.79856C16.5124 7.60057 16.4982 7.39219 16.4982 7.17321C16.4982 5.58885 17.1943 3.89327 18.4303 2.50691C19.0473 1.80497 19.8321 1.22131 20.7839 0.755721C21.7335 0.297076 22.6318 0.0434349 23.4766 0C23.5013 0.22063 23.5116 0.441273 23.5116 0.660167V0.660188Z" fill="black"/>
</svg>
