<svg width="36" height="35" viewBox="0 0 36 35" fill="none" xmlns="http://www.w3.org/2000/svg">
<path d="M35.3066 5.89638L29.9334 0.52496C29.7673 0.358259 29.5699 0.226056 29.3525 0.135961C29.1351 0.0458669 28.902 -0.00033943 28.6667 1.87708e-06H7.16667C6.93135 -0.00033943 6.69828 0.0458669 6.48088 0.135961C6.26349 0.226056 6.06606 0.358259 5.89996 0.52496L0.526755 5.89638C0.359355 6.06242 0.226593 6.26005 0.13617 6.4778C0.0457471 6.69556 -0.000536314 6.9291 4.68852e-06 7.16488V30.4583C4.68852e-06 32.4345 1.60713 34.0417 3.58334 34.0417H32.25C34.2262 34.0417 35.8333 32.4345 35.8333 30.4583V7.16488C35.8339 6.9291 35.7876 6.69556 35.6972 6.4778C35.6067 6.26005 35.474 6.06242 35.3066 5.89638ZM9.1375 2.15H26.875L30.8167 6.09169H5.01666L9.1375 2.15ZM2.86666 31.3542V8.24169H32.9667V31.3542H2.86666Z" fill="#686868"/>
<path d="M24.725 19.35H11.825V14.6917H9.31665V21.8583H27.2333V14.6917H24.725V19.35Z" fill="#686868"/>
</svg>
