<svg width="41" height="52" viewBox="0 0 41 52" fill="none" xmlns="http://www.w3.org/2000/svg">
<path fill-rule="evenodd" clip-rule="evenodd" d="M12.7068 3.22945C12.7068 1.44587 14.1527 0 15.9362 0H18.0892C18.9163 0 19.6708 0.310946 20.2422 0.822318C20.8135 0.310946 21.568 0 22.3951 0H24.5481C26.3317 0 27.7775 1.44587 27.7775 3.22945V4.48969C28.1142 4.37068 28.4766 4.30593 28.854 4.30593H31.007C32.7905 4.30593 34.2364 5.7518 34.2364 7.53537V15.0708H37.2546C39.1572 15.0708 40.6475 16.7073 40.4699 18.6016L37.4612 50.6951C37.4057 51.2871 36.8808 51.7219 36.2889 51.6665C35.697 51.611 35.2621 51.0861 35.3176 50.4942L38.3264 18.4007C38.3856 17.7692 37.8888 17.2237 37.2546 17.2237H34.1595C33.9939 18.0652 33.5679 18.8486 32.9547 19.5439C32.1607 20.4442 31.0456 21.2094 29.7231 21.8262C28.3953 22.4454 26.8466 22.9208 25.1727 23.2354C23.4971 23.5504 21.714 23.701 19.9256 23.6808C18.1374 23.6607 16.3695 23.4702 14.7236 23.1172C13.0799 22.7646 11.5734 22.2534 10.2998 21.6006C9.03183 20.9508 7.97818 20.152 7.26022 19.217C6.78895 18.6033 6.46437 17.9313 6.32481 17.2237H3.22973C2.59551 17.2237 2.09875 17.7692 2.15795 18.4007L4.98371 48.5422C5.03557 49.0954 5.4999 49.5182 6.05549 49.5182H31.007C31.6015 49.5182 32.0835 50.0001 32.0835 50.5947C32.0835 51.1892 31.6015 51.6712 31.007 51.6712H6.05549C4.3887 51.6712 2.99572 50.4027 2.84014 48.7431L0.014378 18.6016C-0.163218 16.7073 1.32709 15.0708 3.22973 15.0708H6.24789V7.53537C6.24789 5.7518 7.69376 4.30593 9.47733 4.30593H11.6303C12.0077 4.30593 12.3701 4.37068 12.7068 4.48969V3.22945ZM8.40085 15.9704C8.416 16.0617 8.41953 16.1565 8.40999 16.2531C8.36048 16.7543 8.50974 17.3093 8.9678 17.9058C9.43549 18.5148 10.202 19.1312 11.2818 19.6846C11.7176 19.908 12.1942 20.1158 12.7068 20.3053V7.53537C12.7068 6.94085 12.2248 6.45889 11.6303 6.45889H9.47733C8.88281 6.45889 8.40085 6.94085 8.40085 7.53537V15.9704ZM14.7548 20.9173C14.8933 20.9501 15.0334 20.9817 15.1751 21.0121C16.4338 21.282 17.7834 21.4498 19.1657 21.5073V3.22945C19.1657 2.63492 18.6837 2.15296 18.0892 2.15296H15.9362C15.3417 2.15296 14.8597 2.63492 14.8597 3.22945V20.4532C14.8597 20.6194 14.8221 20.7768 14.7548 20.9173ZM21.3186 21.5073C22.5046 21.458 23.6692 21.3273 24.775 21.1195C25.0641 21.0652 25.3474 21.0059 25.6246 20.9418V3.22945C25.6246 2.63492 25.1426 2.15296 24.5481 2.15296H22.3951C21.8006 2.15296 21.3186 2.63492 21.3186 3.22945V21.5073ZM27.7775 20.3053C28.141 20.1709 28.4868 20.0272 28.8132 19.875C29.9545 19.3427 30.7973 18.7352 31.34 18.1199C31.8743 17.514 32.082 16.9456 32.0835 16.4434V7.53537C32.0835 6.94085 31.6015 6.45889 31.007 6.45889H28.854C28.2595 6.45889 27.7775 6.94085 27.7775 7.53537V20.3053Z" fill="#686868"/>
<path d="M24.8001 38.0154C25.8113 35.8629 24.8861 33.2984 22.7336 32.2872C20.5812 31.2761 18.0166 32.2013 17.0055 34.3537C15.9943 36.5062 16.9195 39.0708 19.072 40.0819C19.6101 40.3347 19.8414 40.9758 19.5886 41.5139C19.3358 42.052 18.6947 42.2833 18.1566 42.0306C14.9279 40.5138 13.5401 36.667 15.0568 33.4383C16.5735 30.2097 20.4204 28.8219 23.649 30.3386C26.8777 31.8553 28.2655 35.7021 26.7488 38.9308C26.0082 40.5074 24.7098 41.6461 23.2021 42.2203C22.6465 42.4319 22.0246 42.1531 21.813 41.5975C21.6014 41.0419 21.8803 40.4199 22.4359 40.2083C23.4433 39.8247 24.3061 39.0671 24.8001 38.0154Z" fill="#686868"/>
</svg>
