<svg width="33" height="33" viewBox="0 0 33 33" fill="none" xmlns="http://www.w3.org/2000/svg">
<g clip-path="url(#clip0_1022_30)">
<path fill-rule="evenodd" clip-rule="evenodd" d="M32.34 16.875C32.34 15.705 32.235 14.58 32.04 13.5H16.5V19.8825H25.38C24.9975 21.945 23.835 23.6925 22.0875 24.8625V29.0025H27.42C30.54 26.13 32.34 21.9 32.34 16.875Z" fill="#4285F4"/>
<path fill-rule="evenodd" clip-rule="evenodd" d="M16.5 33C20.955 33 24.69 31.5225 27.42 29.0025L22.0875 24.8625C20.61 25.8525 18.72 26.4375 16.5 26.4375C12.2025 26.4375 8.565 23.535 7.2675 19.635H1.755V23.91C4.47001 29.3025 10.05 33 16.5 33Z" fill="#34A853"/>
<path fill-rule="evenodd" clip-rule="evenodd" d="M7.2675 19.635C6.9375 18.645 6.75 17.5875 6.75 16.5C6.75 15.4125 6.9375 14.355 7.2675 13.365V9.09003H1.755C0.6375 11.3175 0 13.8375 0 16.5C0 19.1625 0.6375 21.6825 1.755 23.91L7.2675 19.635Z" fill="#FBBC05"/>
<path fill-rule="evenodd" clip-rule="evenodd" d="M16.5 6.5625C18.9225 6.5625 21.0975 7.395 22.8075 9.03L27.54 4.2975C24.6825 1.635 20.9475 0 16.5 0C10.05 0 4.47 3.6975 1.755 9.09L7.2675 13.365C8.565 9.465 12.2025 6.5625 16.5 6.5625Z" fill="#EA4335"/>
</g>
<defs>
<clipPath id="clip0_1022_30">
<rect width="33" height="33" rx="8.25" fill="white"/>
</clipPath>
</defs>
</svg>
