<svg width="422" height="363" viewBox="0 0 422 363" fill="none" xmlns="http://www.w3.org/2000/svg">
<path d="M0.0439758 108.111V106.662V106.636C10.503 111.676 20.4614 120.269 30.6363 132.048C35.805 138.054 49.8902 156.597 51.9603 158.857C54.3417 161.429 57.3319 163.897 61.797 167.096L69.2252 172.294C82.1197 181.409 88.5737 188.264 91.3475 198.293C92.4434 202.237 93.4582 207.225 94.703 214.486C95.0277 216.379 97.4091 230.744 98.1803 235.092C102.009 256.743 105.839 269.723 111.521 276.409C126.432 293.999 138.731 312.764 138.731 319.907C138.731 322.91 139.286 324.19 146.782 339.873C147.715 341.832 148.487 343.464 149.19 345.032C152.667 352.723 154.602 358.456 154.914 363H153.56C153.236 358.665 151.341 353.062 147.959 345.554C147.255 344 146.484 342.368 145.564 340.422C137.838 324.282 137.378 323.224 137.378 319.907C137.378 313.208 125.147 294.534 110.466 277.245C104.594 270.311 100.724 257.226 96.8408 235.327C96.0831 230.979 93.6882 216.588 93.377 214.708C92.1322 207.499 91.131 202.537 90.0485 198.646C87.3695 188.983 81.0914 182.31 68.4269 173.365C67.6557 172.816 62.4599 169.199 60.9987 168.154C56.4524 164.903 53.3945 162.395 50.9591 159.732C48.8213 157.42 34.7361 138.851 29.5945 132.896C19.7308 121.47 10.0836 113.1 0.0439758 108.111Z" fill="#FF784E"/>
<path d="M23.2544 35.8228C23.2705 35.8434 23.2867 35.8641 23.3028 35.8848C23.2684 35.8294 23.253 35.8098 23.2544 35.8228Z" fill="#FF784E"/>
<path d="M129.815 363H127.054C126.449 359.117 125.192 355.354 123.333 351.861C120.086 345.972 119.342 344.104 116.027 334.441C115.093 331.712 114.403 329.949 113.524 328.186C110.71 322.506 106.001 317.413 96.6379 310.492C85.2994 302.121 76.6263 288.162 68.6569 268.169C65.3961 259.955 56.7907 234.609 55.6 231.566C52.1092 222.582 46.9946 215.504 34.8984 201.401L31.2723 197.144C23.0052 187.402 18.3913 181.095 15.0628 174.213C12.3567 168.598 6.99863 162.905 0.0439758 157.76V154.626C7.87811 160.176 14.3998 166.653 17.5118 173.103C20.7185 179.737 25.2241 185.914 33.3695 195.499L36.9956 199.73C49.2678 214.068 54.504 221.302 58.1437 230.652C59.3479 233.76 67.9398 259.094 71.1871 267.229C78.9806 286.817 87.4507 300.424 98.2886 308.429C107.963 315.558 112.942 320.965 115.973 327.05C116.998 329.181 117.875 331.375 118.598 333.618C121.859 343.125 122.562 344.914 125.715 350.634C127.636 354.094 128.867 357.777 129.815 363Z" fill="#FF784E"/>
<path d="M140.707 363H139.326C137.135 352.514 135.484 346.938 133.427 343.752C131.247 340.265 129.352 336.619 127.758 332.848C125.267 327.109 123.108 321.241 121.29 315.271C119.071 313.051 117.948 311.98 116.731 310.831C113.253 307.514 109.789 304.093 106.542 300.698C105.189 299.288 103.89 297.89 102.672 296.545C97.8962 291.283 94.4865 286.895 92.8088 283.63C91.4557 281.019 89.9268 275.652 87.8025 266.393C86.9365 262.606 82.8639 243.998 81.7002 238.892C76.8293 217.568 72.7972 204.261 68.4675 197.497C58.1843 181.369 54.2334 177.165 18.513 144.087C12.9642 138.831 6.76035 134.261 0.0439758 130.48V128.979C7.12238 132.873 13.6487 137.636 19.4602 143.147C55.2347 176.303 59.2668 180.56 69.6311 196.818C74.0555 203.752 78.1147 217.124 83.0262 238.605C84.1899 243.724 88.2625 262.332 89.1285 266.119C91.2257 275.234 92.7276 280.575 94.013 283.056C95.6366 286.177 98.9786 290.499 103.687 295.67C109.242 301.663 115.024 307.456 121.02 313.038C123.333 317.256 123.766 318.614 124.281 320.077C125.715 324.255 127.298 328.434 129.016 332.352C130.575 336.059 132.43 339.643 134.564 343.073C136.769 346.455 138.46 352.161 140.707 363Z" fill="#FF784E"/>
<path d="M114.796 363H113.307H113.294C110.534 357.28 105.487 352.201 98.6269 348.035C89.0879 342.263 76.7616 338.829 66.3432 338.829C59.1991 338.829 54.5311 335.551 51.9062 329.44C49.8225 324.582 49.0648 318.275 49.1054 309.408C49.1054 307.188 49.1595 305.255 49.2678 301.56C49.3895 297.264 49.4301 295.775 49.4301 293.79C49.397 284.447 47.8634 275.165 44.8839 266.276C42.9771 261.618 42.3356 260.217 41.6427 258.703L41.5825 258.571C30.42 234.2 19.0767 209.906 7.55338 185.692C5.49286 181.293 2.97695 177.106 0.0439758 173.195V171.04C3.50118 175.402 6.42507 180.134 8.75759 185.143C17.8443 204.19 26.8196 223.286 35.6832 242.431C38.8642 249.324 42.0213 256.228 45.1545 263.142C46.2956 266.122 47.2667 269.161 48.0635 272.243C49.7549 279.034 50.7832 286.307 50.7832 293.79C50.7832 295.801 50.7561 297.303 50.6208 301.612C50.5126 305.295 50.4584 307.214 50.4584 309.434C50.3773 328.395 54.3011 337.536 66.3432 337.536C77.0187 337.536 89.602 341.036 99.344 346.938C106.637 351.352 111.968 356.81 114.796 363Z" fill="#FF784E"/>
<path d="M26.9831 363H25.5895C23.0728 353.428 21.9362 350.072 18.3642 342.368C15.6311 336.465 14.6298 329.975 14.9816 322.349C15.2387 316.616 15.9558 312.163 18.0801 301.103C19.5549 293.45 20.2043 289.716 20.6914 285.276C21.9768 273.863 21.0297 264.709 17.0112 256.195C11.7088 244.922 6.05038 233.808 0.0439758 222.869V220.101C6.51535 231.754 12.5893 243.609 18.256 255.646C22.3692 264.408 23.3434 273.784 22.0445 285.406C21.5439 289.885 20.8944 293.659 19.4196 301.338C17.2953 312.346 16.6052 316.747 16.3346 322.401C15.9964 329.844 16.9706 336.139 19.609 341.845C23.2487 349.706 24.3988 353.115 26.9831 363Z" fill="#FF784E"/>
<path d="M398.435 348.322C401.085 353.02 403.308 357.931 405.078 363H403.644C401.898 358.09 399.774 353.428 397.244 348.949C393.726 342.707 391.724 337.693 390.533 332.992L389.992 330.576L389.613 328.708C389.369 327.533 389.139 326.906 388.828 326.488C388.206 325.627 386.893 325.365 383.01 325.405C384.282 325.392 369.682 325.783 362.647 325.783C348.791 325.783 337.548 324.713 322.596 322.427C299.906 318.967 298.742 318.823 290.84 319.15C287.228 319.293 283.75 319.75 280.273 320.534C256.108 326.031 217.343 328.251 205.49 324.438C201.648 323.211 197.25 320.664 192.217 316.943C189.443 314.893 186.534 312.529 183.287 309.721C181.379 308.063 170.893 298.635 168.742 296.898C166.753 295.305 157.62 287.156 156.727 286.386C154.508 284.466 152.519 282.821 150.624 281.345C144.116 276.279 139.015 273.536 133.711 273.536C130.829 273.471 129.815 273.536 129.003 273.928C128.096 274.359 127.799 275.26 128.204 277.153C129.152 281.685 134.158 291.048 145.388 309.121C153.155 321.592 158.256 332.835 161.489 343.647C163.478 350.333 164.141 353.467 165.562 363H164.195C162.802 353.676 162.139 350.594 160.177 344.013C156.984 333.305 151.937 322.179 144.238 309.8C132.913 291.57 127.866 282.155 126.865 277.415C126.364 274.999 126.865 273.484 128.394 272.753C129.503 272.23 130.586 272.165 135.348 272.23C139.435 272.23 144.725 275.064 151.477 280.327C153.575 281.972 155.627 283.67 157.633 285.419C158.54 286.203 167.646 294.325 169.608 295.892C171.786 297.642 182.299 307.11 184.193 308.742C187.048 311.235 190 313.622 193.042 315.898C197.967 319.541 202.243 322.022 205.923 323.198C217.478 326.919 256.013 324.699 279.962 319.267C283.515 318.463 287.14 317.986 290.786 317.844C298.81 317.517 299.973 317.661 322.799 321.134C337.696 323.407 348.859 324.477 362.66 324.477C369.669 324.477 384.241 324.099 382.996 324.099C387.326 324.06 388.936 324.386 389.938 325.731C390.464 326.554 390.805 327.475 390.939 328.434L391.318 330.328L391.859 332.678C393.009 337.288 394.971 342.185 398.435 348.322Z" fill="#FF784E"/>
<path d="M366.719 334.271C380.534 334.271 385.459 339.573 393.455 363H390.614C383.159 341.323 378.829 336.883 366.719 336.883C360.536 336.883 352.823 336.465 327.738 334.924L325.654 334.794C304.628 333.501 293.993 332.965 286.89 332.965C279.854 332.965 269.205 334.219 248.233 337.223L246.163 337.523C220.996 341.14 213.311 342.106 207.06 342.106C200.457 342.106 196.127 340.618 190.769 337.327C190.62 337.236 188.347 335.812 187.711 335.447C184.802 333.71 182.692 332.965 179.999 332.965C177.766 332.965 177.144 333.645 177.144 335.864C177.206 337.499 177.419 339.124 177.78 340.722C177.983 341.78 178.971 346.429 179.228 347.656C180.337 353.206 181.027 358.012 181.257 363H178.551C178.321 358.194 177.645 353.533 176.562 348.166C176.332 346.964 175.331 342.289 175.114 341.218C174.654 338.855 174.438 337.223 174.438 335.864C174.438 332.26 176.21 330.354 179.999 330.354C183.273 330.354 185.831 331.255 189.119 333.214C189.795 333.605 192.095 335.055 192.23 335.133C197.183 338.176 201.039 339.495 207.06 339.495C213.108 339.495 220.834 338.515 245.757 334.937L247.841 334.637C268.975 331.607 279.651 330.354 286.89 330.354C294.074 330.354 304.723 330.889 325.83 332.182L327.9 332.313C352.891 333.853 360.63 334.271 366.719 334.271Z" fill="#FF784E"/>
<path d="M193.042 363H191.513C188.888 358.234 188.171 356.68 187.955 355.087C187.644 352.801 188.997 351.6 192.217 351.078C194.747 350.66 197.534 350.594 207.06 350.594C215.138 350.594 224.541 349.863 235.785 348.479C241.103 347.826 246.609 347.069 253.51 346.024C286.172 341.166 284.048 341.453 290.015 341.453C322.826 341.453 360.495 344.379 372.443 350.673C376.799 352.958 379.966 357.163 382.185 363H380.737C378.639 357.685 375.703 353.872 371.807 351.822C360.143 345.684 322.515 342.759 290.015 342.759C284.156 342.759 286.186 342.485 253.713 347.317C246.812 348.348 241.292 349.132 235.947 349.785C224.649 351.169 215.205 351.9 207.06 351.9C197.643 351.9 194.869 351.966 192.433 352.357C189.863 352.775 189.091 353.454 189.294 354.917C189.484 356.34 190.255 357.959 193.042 363Z" fill="#FF784E"/>
<path d="M313.95 359.735C308.917 359.735 302.585 360.858 294.886 363H290.232C299.987 360.01 307.862 358.43 313.95 358.43C329.105 358.43 339.821 359.696 348.291 363H344.259C336.546 360.663 326.926 359.735 313.95 359.735Z" fill="#FF784E"/>
<path d="M79.4271 354.473C86.2871 355.961 91.8075 358.73 95.6907 363H95.6637H93.81C90.1974 359.422 85.2182 357.071 79.1295 355.753C73.8661 354.616 69.1981 354.368 61.9593 354.486L59.578 354.512C52.8398 354.512 48.6318 355.961 47.1976 360.101C46.8999 360.963 46.7376 361.929 46.7105 363H45.371C45.3795 361.879 45.5619 360.765 45.9122 359.696C47.59 354.825 52.3121 353.206 59.578 353.206C60.3673 353.2 61.1567 353.187 61.9458 353.167C69.2793 353.062 74.042 353.311 79.4271 354.473Z" fill="#FF784E"/>
<path d="M15.604 77.019C15.604 87.2047 9.93474 91.7621 0.0439758 91.5531V90.2473C9.24468 90.4693 14.2509 86.395 14.2509 77.019C14.2509 63.0073 8.06753 42.4401 0.0439758 25.8297V22.8263C8.77112 39.9982 15.604 62.1193 15.604 77.019Z" fill="#FF784E"/>
<path d="M3.92722 80.6363C2.99361 81.5895 1.70822 82.1641 0.0439758 82.3469V81.041C1.31584 80.8713 2.2765 80.4273 2.95302 79.7352C4.46843 78.1943 4.71198 75.5435 4.1437 70.8946L3.92722 69.2101C3.53483 66.2458 3.42659 65.2403 3.42659 63.9605C3.42659 60.5915 2.06001 54.4017 0.0439758 47.7027V43.1975C2.77713 51.5289 4.77963 59.7818 4.77963 63.9605C4.8277 65.6628 4.99495 67.3599 5.28026 69.0403L5.49675 70.7379C6.09209 75.7785 5.82148 78.7036 3.92722 80.6363Z" fill="#FF784E"/>
</svg>
