<svg width="162" height="170" viewBox="0 0 162 170" fill="none" xmlns="http://www.w3.org/2000/svg">
<rect x="52.5532" y="95.4083" width="55.838" height="8.67343" rx="4.33672" fill="url(#paint0_linear_1081_351)"/>
<rect x="45.9841" y="78.0615" width="68.9763" height="8.67343" rx="4.33672" fill="url(#paint1_linear_1081_351)"/>
<path d="M80.4726 29.4899C98.0838 29.4899 112.458 42.666 113.281 59.2141C113.322 60.0415 112.647 60.7142 111.818 60.7142H49.1267C48.2982 60.7142 47.6227 60.0415 47.6639 59.2141C48.4873 42.666 62.8613 29.4899 80.4726 29.4899Z" fill="url(#paint2_linear_1081_351)"/>
<mask id="mask0_1081_351" style="mask-type:alpha" maskUnits="userSpaceOnUse" x="0" y="0" width="162" height="170">
<path d="M130.564 0C133.832 0.00021916 137.914 1.7179 137.953 1.73438C140.791 2.77486 142.394 3.84347 144.523 5.2041C146.651 6.64487 150.534 10.4561 152.268 12.457C153.923 14.458 156.13 17.6593 157.154 19.6602C158.1 21.6611 159.362 25.2629 159.992 27.6641C160.781 31.1057 161.096 41.5909 161.096 75.2871C161.096 113.866 160.938 119.069 159.677 124.111C158.968 127.233 157.155 131.474 155.737 133.636C154.397 135.797 151.243 139.319 148.878 141.561C146.513 143.721 142.73 146.363 140.602 147.403C138.395 148.444 134.217 149.884 131.143 150.524C126.729 151.485 118.688 151.725 58.2297 151.725L46.0119 160.93C34.1886 169.814 33.715 170.134 30.1681 169.974C27.173 169.734 26.1478 169.334 24.8078 167.493C23.4678 165.572 23.074 163.811 22.6799 148.924L19.0539 146.923C17.0833 145.802 13.3787 142.921 10.7775 140.52C7.62462 137.638 5.25957 134.517 3.7619 131.315C2.42187 128.434 1.16062 123.871 0.687676 120.109C0.0571126 115.867 -0.100826 99.2989 0.056817 70.8857C0.293291 28.545 0.372479 27.984 2.10662 23.2617C3.13138 20.6204 5.10218 16.8583 6.59979 14.8574C8.01867 12.8565 10.3832 10.2151 11.8019 8.93457C13.2997 7.73393 17.005 5.4133 20.0002 3.97266C22.9955 2.45197 27.6461 0.931432 30.2472 0.53125C32.8546 0.131085 127.279 0 130.564 0ZM79.6515 20.8164C56.7881 20.8165 38.0478 38.3855 36.2736 60.7139H24.3498C22.6932 60.7141 21.35 62.0573 21.3498 63.7139V68.1221C21.3498 69.7788 22.6931 71.1219 24.3498 71.1221H25.0353C25.764 71.8136 26.6157 72.6399 27.2521 73.2861C28.2768 74.1666 29.0646 75.7682 29.0646 76.8887C29.0649 78.0107 30.3266 86.1743 31.7453 95.1377C33.2428 104.021 34.8971 112.424 35.3703 113.706C35.8432 114.987 37.4199 117.308 38.7599 118.829C40.1788 120.27 42.7016 122.191 44.4357 122.991C47.3521 124.352 50.5063 124.111 79.9064 124.111C98.5861 124.111 111.583 123.643 113.319 123.163C114.895 122.683 118.846 121.55 120.659 119.869C122.393 118.268 123.814 115.579 124.815 113.622C125.366 112.261 127.123 105.302 128.463 97.458C129.803 89.6944 131.064 81.8507 131.3 80.0898C131.458 78.3291 132.089 75.8481 132.562 74.6475C133.113 73.447 133.955 72.7434 134.669 71.9893C135.08 71.5558 135.49 71.3389 135.901 71.1221H136.595C138.252 71.1221 139.595 69.7789 139.595 68.1221V63.7139C139.595 62.0572 138.252 60.7139 136.595 60.7139H123.028C121.254 38.3856 102.515 20.8165 79.6515 20.8164Z" fill="url(#paint3_linear_1081_351)"/>
</mask>
<g mask="url(#mask0_1081_351)">
<rect x="0.000244141" y="0.00012207" width="160.945" height="152.652" rx="23" fill="url(#paint4_linear_1081_351)"/>
</g>
<path d="M47.219 160.295L60.7652 150.446L21.3502 147.448C21.7872 163.378 22.2241 165.262 23.7098 167.317C25.1956 169.287 26.3317 169.715 29.6527 169.972C33.5854 170.143 34.1098 169.801 47.219 160.295Z" fill="#DDDDDD" fill-opacity="0.929412"/>
<defs>
<linearGradient id="paint0_linear_1081_351" x1="80.4722" y1="95.4083" x2="80.4722" y2="104.082" gradientUnits="userSpaceOnUse">
<stop stop-color="white"/>
<stop offset="1" stop-color="#DEDEDE"/>
</linearGradient>
<linearGradient id="paint1_linear_1081_351" x1="80.4722" y1="78.0615" x2="80.4722" y2="86.735" gradientUnits="userSpaceOnUse">
<stop stop-color="white"/>
<stop offset="1" stop-color="#DEDEDE"/>
</linearGradient>
<linearGradient id="paint2_linear_1081_351" x1="80.4725" y1="29.4899" x2="80.4725" y2="60.7142" gradientUnits="userSpaceOnUse">
<stop stop-color="white"/>
<stop offset="1" stop-color="#DEDEDE"/>
</linearGradient>
<linearGradient id="paint3_linear_1081_351" x1="80.5479" y1="0" x2="80.5479" y2="169.999" gradientUnits="userSpaceOnUse">
<stop stop-color="white"/>
<stop offset="1" stop-color="#DDDDDD"/>
</linearGradient>
<linearGradient id="paint4_linear_1081_351" x1="80.4726" y1="0.00012207" x2="80.4726" y2="152.653" gradientUnits="userSpaceOnUse">
<stop stop-color="white"/>
<stop offset="1" stop-color="#DEDEDE"/>
</linearGradient>
</defs>
</svg>
