<svg width="79" height="83" viewBox="0 0 79 83" fill="none" xmlns="http://www.w3.org/2000/svg">
<rect x="25.6591" y="46.5816" width="27.262" height="4.23467" rx="2.11734" fill="#FE4A12"/>
<rect x="22.4518" y="38.1123" width="33.6766" height="4.23467" rx="2.11734" fill="#FE4A12"/>
<path d="M39.2903 14.398C47.8887 14.398 54.9066 20.831 55.3086 28.9104C55.3287 29.3143 54.9989 29.6428 54.5944 29.6428H23.9862C23.5817 29.6428 23.2519 29.3143 23.272 28.9104C23.674 20.831 30.6919 14.398 39.2903 14.398Z" fill="#FE4A12"/>
<mask id="mask0_1014_234" style="mask-type:alpha" maskUnits="userSpaceOnUse" x="0" y="0" width="79" height="83">
<path d="M63.7454 0C65.336 0 67.3218 0.833177 67.3538 0.84668C68.7391 1.35464 69.5219 1.8768 70.5609 2.54102C71.5999 3.24436 73.4953 5.10501 74.3421 6.08203C75.1502 7.05892 76.2285 8.62167 76.7288 9.59863C77.1906 10.5755 77.8067 12.3345 78.1146 13.5068C78.4994 15.1876 78.6527 20.3073 78.6527 36.7578C78.6527 55.5934 78.576 58.1338 77.9603 60.5957C77.6139 62.1197 76.7282 64.191 76.0355 65.2461C75.3811 66.3012 73.8421 68.0203 72.6878 69.1143C71.5333 70.1693 69.6859 71.4588 68.6468 71.9668C67.5692 72.4748 65.5294 73.1786 64.0286 73.4912C61.8734 73.9601 57.9466 74.0771 28.43 74.0771L22.4652 78.5713C16.6931 82.9085 16.4612 83.0654 14.7298 82.9873C13.2676 82.8701 12.7668 82.6741 12.1126 81.7754C11.4586 80.8377 11.266 79.9773 11.0736 72.71L9.30305 71.7324C8.34083 71.1852 6.53187 69.7786 5.26203 68.6064C3.72277 67.1997 2.5684 65.6753 1.83723 64.1123C1.18303 62.7055 0.567151 60.4782 0.336253 58.6416C0.0283844 56.5703 -0.0493095 48.4809 0.0276593 34.6084C0.143109 13.9372 0.182058 13.6628 1.02864 11.3574C1.5289 10.0679 2.4908 8.23091 3.222 7.25391C3.9146 6.27713 5.06927 4.98767 5.76203 4.3623C6.49321 3.77617 8.30258 2.64287 9.76496 1.93945C11.2273 1.19705 13.4979 0.454247 14.7679 0.258789C16.0392 0.0634299 62.1315 1.51356e-05 63.7454 0ZM38.889 10.1631C27.7264 10.1633 18.5765 18.7412 17.7103 29.6426H11.89C11.0811 29.6426 10.4252 30.2986 10.4251 31.1074V33.2598C10.4253 34.0686 11.0811 34.7246 11.89 34.7246H12.22C12.5759 35.0627 12.9938 35.4653 13.305 35.7812C13.8052 36.211 14.1905 36.992 14.1907 37.5391C14.1907 38.0862 14.8066 42.0725 15.4993 46.4492C16.2305 50.7865 17.0389 54.8899 17.2698 55.5156C17.5009 56.1409 18.2701 57.2743 18.9241 58.0166C19.6168 58.7199 20.849 59.658 21.6956 60.0488C23.1194 60.7129 24.6606 60.5957 39.013 60.5957C48.1327 60.5957 54.4784 60.3672 55.3265 60.1328C56.0961 59.8984 58.0252 59.345 58.9105 58.5244C59.7569 57.743 60.4503 56.4302 60.9388 55.4746C61.2082 54.8103 62.0658 51.4125 62.72 47.583C63.3743 43.7924 63.9903 39.9623 64.1058 39.1025C64.1828 38.2429 64.4901 37.0315 64.721 36.4453C64.9904 35.8592 65.4018 35.5156 65.7503 35.1475C65.9507 34.9359 66.1516 34.8305 66.3519 34.7246H66.6917C67.5003 34.7243 68.1564 34.0684 68.1566 33.2598V31.1074C68.1564 30.2988 67.5004 29.6428 66.6917 29.6426H60.0667C59.2004 18.7412 50.0517 10.1631 38.889 10.1631Z" fill="url(#paint0_linear_1014_234)"/>
</mask>
<g mask="url(#mask0_1014_234)">
<rect x="0.000961304" y="9.15527e-05" width="78.5788" height="74.5302" rx="11.2294" fill="#FE4A12"/>
</g>
<path d="M23.0548 78.2614L29.6685 73.4529L10.4247 71.9895C10.6381 79.7667 10.8514 80.6865 11.5768 81.69C12.3022 82.6517 12.8569 82.8608 14.4783 82.9862C16.3984 83.0698 16.6544 82.9026 23.0548 78.2614Z" fill="#FE4A12"/>
<defs>
<linearGradient id="paint0_linear_1014_234" x1="39.3263" y1="0" x2="39.3263" y2="83" gradientUnits="userSpaceOnUse">
<stop stop-color="white"/>
<stop offset="1" stop-color="#DDDDDD"/>
</linearGradient>
</defs>
</svg>
