<svg width="422" height="363" viewBox="0 0 422 363" fill="none" xmlns="http://www.w3.org/2000/svg">
<path d="M421.044 108.111V106.662V106.636C410.585 111.676 400.626 120.269 390.452 132.048C385.283 138.054 371.198 156.597 369.128 158.857C366.746 161.429 363.756 163.897 359.291 167.096L351.863 172.294C338.968 181.409 332.514 188.264 329.74 198.293C328.644 202.237 327.63 207.225 326.385 214.486C326.06 216.379 323.679 230.744 322.908 235.092C319.078 256.743 315.249 269.723 309.567 276.409C294.656 293.999 282.357 312.764 282.357 319.907C282.357 322.91 281.802 324.19 274.306 339.873C273.373 341.832 272.601 343.464 271.898 345.032C268.42 352.723 266.486 358.456 266.174 363H267.527C267.852 358.665 269.746 353.062 273.129 345.554C273.833 344 274.604 342.368 275.524 340.422C283.25 324.282 283.71 323.224 283.71 319.907C283.71 313.208 295.941 294.534 310.622 277.245C316.494 270.311 320.364 257.226 324.247 235.327C325.005 230.979 327.4 216.588 327.711 214.708C328.956 207.499 329.957 202.537 331.039 198.646C333.718 188.983 339.997 182.31 352.661 173.365C353.432 172.816 358.628 169.199 360.089 168.154C364.635 164.903 367.693 162.395 370.129 159.732C372.267 157.42 386.352 138.851 391.493 132.896C401.357 121.47 411.004 113.1 421.044 108.111Z" fill="#FF784E"/>
<path d="M397.834 35.8228C397.817 35.8434 397.801 35.8641 397.785 35.8848C397.82 35.8294 397.835 35.8098 397.834 35.8228Z" fill="#FF784E"/>
<path d="M291.273 363H294.034C294.639 359.117 295.895 355.354 297.754 351.861C301.002 345.972 301.746 344.104 305.061 334.441C305.995 331.712 306.685 329.949 307.564 328.186C310.378 322.506 315.087 317.413 324.45 310.492C335.789 302.121 344.462 288.162 352.431 268.169C355.692 259.955 364.297 234.609 365.488 231.566C368.979 222.582 374.093 215.504 386.189 201.401L389.816 197.144C398.083 187.402 402.697 181.095 406.025 174.213C408.731 168.598 414.089 162.905 421.044 157.76V154.626C413.21 160.176 406.688 166.653 403.576 173.103C400.369 179.737 395.864 185.914 387.718 195.499L384.092 199.73C371.82 214.068 366.584 221.302 362.944 230.652C361.74 233.76 353.148 259.094 349.901 267.229C342.107 286.817 333.637 300.424 322.799 308.429C313.125 315.558 308.146 320.965 305.115 327.05C304.09 329.181 303.213 331.375 302.49 333.618C299.229 343.125 298.526 344.914 295.373 350.634C293.452 354.094 292.221 357.777 291.273 363Z" fill="#FF784E"/>
<path d="M280.381 363H281.761C283.953 352.514 285.604 346.938 287.661 343.752C289.841 340.265 291.736 336.619 293.33 332.848C295.821 327.109 297.98 321.241 299.798 315.271C302.017 313.051 303.14 311.98 304.357 310.831C307.835 307.514 311.298 304.093 314.546 300.698C315.899 299.288 317.198 297.89 318.415 296.545C323.192 291.283 326.601 286.895 328.279 283.63C329.632 281.019 331.161 275.652 333.285 266.393C334.151 262.606 338.224 243.998 339.388 238.892C344.259 217.568 348.291 204.261 352.62 197.497C362.904 181.369 366.854 177.165 402.575 144.087C408.124 138.831 414.328 134.261 421.044 130.48V128.979C413.966 132.873 407.439 137.636 401.628 143.147C365.853 176.303 361.821 180.56 351.457 196.818C347.032 203.752 342.973 217.124 338.062 238.605C336.898 243.724 332.825 262.332 331.959 266.119C329.862 275.234 328.36 280.575 327.075 283.056C325.451 286.177 322.109 290.499 317.401 295.67C311.845 301.663 306.064 307.456 300.068 313.038C297.754 317.256 297.322 318.614 296.807 320.077C295.373 324.255 293.79 328.434 292.072 332.352C290.513 336.059 288.658 339.643 286.524 343.073C284.319 346.455 282.627 352.161 280.381 363Z" fill="#FF784E"/>
<path d="M306.292 363H307.781H307.794C310.554 357.28 315.601 352.201 322.461 348.035C332 342.263 344.326 338.829 354.745 338.829C361.889 338.829 366.557 335.551 369.182 329.44C371.265 324.582 372.023 318.275 371.983 309.408C371.983 307.188 371.928 305.255 371.82 301.56C371.698 297.264 371.658 295.775 371.658 293.79C371.691 284.447 373.225 275.165 376.204 266.276C378.111 261.618 378.752 260.217 379.445 258.703L379.505 258.571C390.668 234.2 402.011 209.906 413.535 185.692C415.595 181.293 418.111 177.106 421.044 173.195V171.04C417.587 175.402 414.663 180.134 412.33 185.143C403.244 204.19 394.268 223.286 385.405 242.431C382.224 249.324 379.067 256.228 375.933 263.142C374.792 266.122 373.821 269.161 373.024 272.243C371.333 279.034 370.305 286.307 370.305 293.79C370.305 295.801 370.332 297.303 370.467 301.612C370.575 305.295 370.629 307.214 370.629 309.434C370.711 328.395 366.787 337.536 354.745 337.536C344.069 337.536 331.486 341.036 321.744 346.938C314.451 351.352 309.12 356.81 306.292 363Z" fill="#FF784E"/>
<path d="M394.105 363H395.498C398.015 353.428 399.152 350.072 402.724 342.368C405.457 336.465 406.458 329.975 406.106 322.349C405.849 316.616 405.132 312.163 403.008 301.103C401.533 293.45 400.884 289.716 400.396 285.276C399.111 273.863 400.058 264.709 404.077 256.195C409.379 244.922 415.038 233.808 421.044 222.869V220.101C414.573 231.754 408.499 243.609 402.832 255.646C398.719 264.408 397.745 273.784 399.043 285.406C399.544 289.885 400.194 293.659 401.668 301.338C403.793 312.346 404.483 316.747 404.753 322.401C405.092 329.844 404.117 336.139 401.479 341.845C397.839 349.706 396.689 353.115 394.105 363Z" fill="#FF784E"/>
<path d="M22.6534 348.322C20.003 353.02 17.7801 357.931 16.0099 363H17.4441C19.1895 358.09 21.3138 353.428 23.844 348.949C27.3619 342.707 29.3644 337.693 30.5551 332.992L31.0963 330.576L31.4752 328.708C31.7187 327.533 31.9488 326.906 32.2599 326.488C32.8824 325.627 34.1948 325.365 38.078 325.405C36.8062 325.392 51.4055 325.783 58.4414 325.783C72.2966 325.783 83.5403 324.713 98.4915 322.427C121.182 318.967 122.346 318.823 130.247 319.15C133.86 319.293 137.337 319.75 140.815 320.534C164.98 326.031 203.745 328.251 215.598 324.438C219.44 323.211 223.838 320.664 228.871 316.943C231.645 314.893 234.554 312.529 237.801 309.721C239.709 308.063 250.195 298.635 252.346 296.898C254.335 295.305 263.468 287.156 264.361 286.386C266.58 284.466 268.569 282.821 270.464 281.345C276.972 276.279 282.073 273.536 287.377 273.536C290.259 273.471 291.273 273.536 292.085 273.928C292.992 274.359 293.289 275.26 292.883 277.153C291.936 281.685 286.93 291.048 275.7 309.121C267.933 321.592 262.832 332.835 259.599 343.647C257.61 350.333 256.947 353.467 255.526 363H256.893C258.286 353.676 258.949 350.594 260.911 344.013C264.104 333.305 269.151 322.179 276.85 309.8C288.175 291.57 293.222 282.155 294.223 277.415C294.724 274.999 294.223 273.484 292.694 272.753C291.585 272.23 290.502 272.165 285.739 272.23C281.653 272.23 276.363 275.064 269.611 280.327C267.513 281.972 265.461 283.67 263.455 285.419C262.548 286.203 253.442 294.325 251.48 295.892C249.302 297.642 238.789 307.11 236.894 308.742C234.04 311.235 231.088 313.622 228.046 315.898C223.121 319.541 218.845 322.022 215.165 323.198C203.61 326.919 165.075 324.699 141.126 319.267C137.573 318.463 133.948 317.986 130.302 317.844C122.278 317.517 121.114 317.661 98.2886 321.134C83.3915 323.407 72.2289 324.477 58.4279 324.477C51.4191 324.477 36.8467 324.099 38.0916 324.099C33.7618 324.06 32.1517 324.386 31.1504 325.731C30.6239 326.554 30.2827 327.475 30.1492 328.434L29.7704 330.328L29.2292 332.678C28.0791 337.288 26.1172 342.185 22.6534 348.322Z" fill="#FF784E"/>
<path d="M54.3687 334.271C40.5541 334.271 35.629 339.573 27.6325 363H30.4739C37.9292 341.323 42.259 336.883 54.3687 336.883C60.5521 336.883 68.2645 336.465 93.3499 334.924L95.4336 334.794C116.46 333.501 127.095 332.965 134.198 332.965C141.234 332.965 151.883 334.219 172.855 337.223L174.925 337.523C200.092 341.14 207.777 342.106 214.028 342.106C220.631 342.106 224.961 340.618 230.319 337.327C230.468 337.236 232.741 335.812 233.377 335.447C236.286 333.71 238.396 332.965 241.089 332.965C243.321 332.965 243.944 333.645 243.944 335.864C243.882 337.499 243.669 339.124 243.308 340.722C243.105 341.78 242.117 346.429 241.86 347.656C240.751 353.206 240.061 358.012 239.831 363H242.537C242.767 358.194 243.443 353.533 244.526 348.166C244.756 346.964 245.757 342.289 245.973 341.218C246.433 338.855 246.65 337.223 246.65 335.864C246.65 332.26 244.877 330.354 241.089 330.354C237.815 330.354 235.257 331.255 231.969 333.214C231.293 333.605 228.993 335.055 228.857 335.133C223.905 338.176 220.049 339.495 214.028 339.495C207.98 339.495 200.254 338.515 175.331 334.937L173.247 334.637C152.113 331.607 141.437 330.354 134.198 330.354C127.014 330.354 116.365 330.889 95.2578 332.182L93.1876 332.313C68.1968 333.853 60.4574 334.271 54.3687 334.271Z" fill="#FF784E"/>
<path d="M228.046 363H229.575C232.199 358.234 232.917 356.68 233.133 355.087C233.444 352.801 232.091 351.6 228.871 351.078C226.341 350.66 223.553 350.594 214.028 350.594C205.95 350.594 196.547 349.863 185.303 348.479C179.985 347.826 174.479 347.069 167.578 346.024C134.915 341.166 137.04 341.453 131.073 341.453C98.2615 341.453 60.5927 344.379 48.6453 350.673C44.2885 352.958 41.1224 357.163 38.9034 363H40.3512C42.4484 357.685 45.3845 353.872 49.2812 351.822C60.9445 345.684 98.5727 342.759 131.073 342.759C136.932 342.759 134.902 342.485 167.375 347.317C174.276 348.348 179.796 349.132 185.141 349.785C196.438 351.169 205.883 351.9 214.028 351.9C223.445 351.9 226.219 351.966 228.654 352.357C231.225 352.775 231.996 353.454 231.794 354.917C231.604 356.34 230.833 357.959 228.046 363Z" fill="#FF784E"/>
<path d="M107.137 359.735C112.171 359.735 118.503 360.858 126.202 363H130.856C121.101 360.01 113.226 358.43 107.137 358.43C91.9834 358.43 81.2672 359.696 72.7972 363H76.8293C84.5416 360.663 94.1618 359.735 107.137 359.735Z" fill="#FF784E"/>
<path d="M341.661 354.473C334.801 355.961 329.28 358.73 325.397 363H325.424H327.278C330.891 359.422 335.87 357.071 341.958 355.753C347.222 354.616 351.89 354.368 359.129 354.486L361.51 354.512C368.248 354.512 372.456 355.961 373.89 360.101C374.188 360.963 374.35 361.929 374.377 363H375.717C375.708 361.879 375.526 360.765 375.176 359.696C373.498 354.825 368.776 353.206 361.51 353.206C360.721 353.2 359.931 353.187 359.142 353.167C351.809 353.062 347.046 353.311 341.661 354.473Z" fill="#FF784E"/>
<path d="M405.484 77.019C405.484 87.2047 411.153 91.7621 421.044 91.5531V90.2473C411.843 90.4693 406.837 86.395 406.837 77.019C406.837 63.0073 413.02 42.4401 421.044 25.8297V22.8263C412.317 39.9982 405.484 62.1193 405.484 77.019Z" fill="#FF784E"/>
<path d="M417.161 80.6363C418.094 81.5895 419.38 82.1641 421.044 82.3469V81.041C419.772 80.8713 418.811 80.4273 418.135 79.7352C416.619 78.1943 416.376 75.5435 416.944 70.8946L417.161 69.2101C417.553 66.2458 417.661 65.2403 417.661 63.9605C417.661 60.5915 419.028 54.4017 421.044 47.7027V43.1975C418.311 51.5289 416.308 59.7818 416.308 63.9605C416.26 65.6628 416.093 67.3599 415.808 69.0403L415.591 70.7379C414.996 75.7785 415.266 78.7036 417.161 80.6363Z" fill="#FF784E"/>
</svg>
