<svg width="822" height="503" viewBox="0 0 822 503" fill="none" xmlns="http://www.w3.org/2000/svg">
<path d="M674.26 485.723C656.919 485.723 639.536 485.24 622.255 483.886C603.712 482.434 584.904 480.525 566.716 478.678C557.109 477.703 547.174 476.695 537.4 475.764C534.987 475.535 532.574 475.302 530.155 475.066C507.323 472.853 483.716 470.566 460.571 472.415C443.063 473.814 425.293 475.991 408.107 478.097C384.3 481.014 359.681 484.029 335.34 485.031C312.171 485.986 288.308 484.041 265.228 482.159C259.102 481.661 252.77 481.142 246.593 480.695C242.626 480.405 238.659 480.113 234.692 479.824C207.234 477.805 178.84 475.717 150.857 474.831C121.654 473.906 92.0551 476.811 63.4281 479.621C42.7497 481.649 21.3674 483.749 0.280366 484.393L0.244571 483.2C21.2898 482.559 42.6542 480.462 63.3117 478.434C91.9746 475.621 121.613 472.71 150.893 473.638C178.903 474.524 207.309 476.614 234.779 478.634C238.746 478.926 242.712 479.218 246.679 479.505C252.862 479.955 259.197 480.471 265.324 480.969C288.367 482.848 312.195 484.793 335.289 483.838C359.583 482.836 384.177 479.824 407.961 476.91C425.158 474.804 442.941 472.624 460.475 471.222C483.725 469.364 507.389 471.657 530.271 473.876C532.687 474.112 535.1 474.345 537.513 474.574C547.293 475.505 557.228 476.513 566.838 477.488C585.02 479.335 603.822 481.244 622.35 482.693C661.652 485.771 701.556 484.342 740.145 482.961C766.75 482.01 794.265 481.026 821.383 481.518L821.362 482.711C794.274 482.216 766.78 483.2 740.187 484.151C718.515 484.933 696.426 485.723 674.26 485.723Z" fill="#FF784E"/>
<path d="M667.954 478.142C652.585 478.142 637.183 477.521 621.828 475.878C602.951 473.859 583.848 471.165 565.371 468.561C555.617 467.186 545.533 465.767 535.604 464.46C533.021 464.12 530.429 463.771 527.834 463.422C505.074 460.359 481.539 457.192 458.614 459.745C441.861 461.612 424.905 464.606 408.506 467.506C386.074 471.469 362.879 475.568 339.799 476.85C327.001 477.56 313.782 476.433 300.998 475.338C298.096 475.09 295.093 474.834 292.17 474.604C276.681 473.396 261.533 471.884 247.47 470.429C243.395 470.008 239.318 469.582 235.244 469.155C206.644 466.163 177.071 463.073 147.86 461.773C119.253 460.502 90.4385 464.624 62.5721 468.615C42.2068 471.529 21.1467 474.545 0.286327 475.442L0.235624 474.249C21.0363 473.354 42.0667 470.345 62.405 467.434C90.3252 463.437 119.197 459.306 147.913 460.583C177.161 461.883 206.751 464.979 235.369 467.971C239.444 468.397 243.518 468.824 247.592 469.244C261.649 470.697 276.789 472.209 292.262 473.417C295.191 473.647 298.195 473.903 301.1 474.151C313.845 475.243 327.022 476.367 339.734 475.66C362.741 474.38 385.901 470.288 408.301 466.33C424.717 463.431 441.691 460.431 458.486 458.561C481.556 455.99 505.167 459.169 527.999 462.241C530.593 462.59 533.182 462.939 535.765 463.279C545.7 464.586 555.787 466.008 565.541 467.38C584.006 469.984 603.104 472.674 621.96 474.691C661.551 478.926 701.577 476.349 740.285 473.859C766.813 472.149 794.244 470.384 821.383 470.81L821.365 472.003C794.274 471.577 766.869 473.343 740.363 475.049C716.595 476.579 692.322 478.142 667.954 478.142Z" fill="#FF784E"/>
<path d="M668.133 471.344C651.89 471.344 636.694 470.369 621.954 468.421C603.008 465.916 583.887 462.528 565.397 459.25C555.635 457.52 545.539 455.73 535.592 454.093C533.164 453.693 530.722 453.282 528.273 452.87C505.471 449.034 481.896 445.07 459.085 448.178C442.833 450.391 426.453 454.075 410.609 457.636C389.185 462.45 367.033 467.431 344.816 468.875C331.645 469.728 317.94 468.245 304.685 466.811C301.923 466.512 299.066 466.202 296.292 465.925C280.523 464.341 265.142 462.355 250.867 460.446C246.766 459.897 242.665 459.342 238.564 458.787C209.477 454.85 179.398 450.779 149.596 449.094C120.649 447.457 91.6972 452.706 63.6995 457.779C43.0002 461.531 21.597 465.409 0.289313 466.503L0.229657 465.313C21.4598 464.225 42.8242 460.353 63.4877 456.607C91.554 451.522 120.581 446.263 149.664 447.907C179.514 449.595 209.614 453.669 238.725 457.609C242.826 458.164 246.924 458.719 251.025 459.268C265.288 461.177 280.66 463.16 296.411 464.744C299.188 465.024 302.048 465.331 304.813 465.633C318.017 467.061 331.675 468.541 344.741 467.694C366.866 466.256 388.97 461.287 410.35 456.482C426.217 452.915 442.622 449.228 458.927 447.009C481.917 443.877 505.584 447.859 528.473 451.707C530.921 452.118 533.358 452.527 535.786 452.927C545.739 454.564 555.838 456.357 565.606 458.087C584.086 461.361 603.193 464.747 622.112 467.249C651.138 471.088 681.952 471.129 719.085 467.386C725.441 466.745 731.898 466.056 738.144 465.388C765.345 462.48 793.471 459.476 821.376 459.7L821.368 460.893C793.531 460.661 765.438 463.667 738.272 466.572C732.024 467.24 725.563 467.932 719.204 468.573C700.82 470.417 683.977 471.344 668.133 471.344Z" fill="#FF784E"/>
<path d="M664.739 465.2C649.599 465.2 635.035 463.297 622.493 461.355C603.676 458.441 584.749 454.439 566.441 450.567C556.781 448.524 546.789 446.41 536.937 444.483C534.939 444.092 532.932 443.692 530.916 443.293C507.967 438.741 484.238 434.032 461.349 437.533C445.33 439.985 429.259 444.235 413.72 448.345C392.928 453.845 371.43 459.53 349.681 461.021C336.193 461.946 322.097 460.118 308.467 458.349C306.048 458.036 303.549 457.711 301.124 457.412C285.34 455.471 269.386 452.924 255.857 450.69C251.806 450.022 247.753 449.345 243.703 448.667C214.703 443.824 184.719 438.813 154.884 436.785C124.959 434.751 95.1719 441.023 66.3689 447.093C44.8256 451.632 22.5455 456.324 0.289313 457.541L0.223695 456.351C22.3904 455.137 44.6227 450.454 66.1214 445.926C95.0079 439.842 124.876 433.549 154.964 435.595C184.856 437.629 214.87 442.643 243.897 447.492C247.947 448.169 251.997 448.846 256.048 449.514C269.562 451.745 285.504 454.29 301.264 456.228C303.692 456.527 306.194 456.852 308.613 457.165C322.187 458.925 336.223 460.744 349.594 459.828C371.23 458.346 392.675 452.673 413.41 447.188C428.979 443.069 445.079 438.81 461.164 436.349C484.259 432.815 508.093 437.542 531.142 442.118C533.158 442.517 535.166 442.914 537.161 443.305C547.022 445.234 557.016 447.346 566.683 449.392C584.972 453.261 603.885 457.26 622.669 460.168C637.114 462.405 654.252 464.592 671.826 463.855C689.059 463.13 706.2 460.974 719.207 459.172C725.578 458.289 732.05 457.344 738.311 456.431C765.396 452.473 793.4 448.381 821.365 448.321L821.367 449.514C793.489 449.574 765.527 453.66 738.484 457.612C732.224 458.528 725.748 459.473 719.371 460.356C706.337 462.161 689.158 464.323 671.876 465.048C669.49 465.152 667.107 465.2 664.739 465.2Z" fill="#FF784E"/>
<path d="M663.212 458.591C648.8 458.591 635.128 456.583 623.317 454.516C604.762 451.268 586.177 446.726 568.201 442.332C558.719 440.015 548.916 437.62 539.24 435.446C537.952 435.156 536.66 434.864 535.363 434.572C512.11 429.313 488.064 423.876 464.797 427.634C448.721 430.232 432.675 434.947 417.159 439.511C396.615 445.554 375.367 451.799 353.695 453.24C339.865 454.161 325.417 451.987 311.444 449.887C309.567 449.604 307.703 449.324 305.854 449.055C290.368 446.788 274.752 443.8 261.515 441.175C257.575 440.394 253.635 439.603 249.695 438.813C221.294 433.116 191.931 427.223 162.555 424.905C130.972 422.412 99.4848 429.656 69.0354 436.665C46.6092 441.825 23.4194 447.161 0.295275 448.602L0.22071 447.412C23.2494 445.977 46.3884 440.653 68.7669 435.505C99.3058 428.478 130.883 421.213 162.647 423.718C192.092 426.041 221.494 431.941 249.927 437.647C253.867 438.437 257.804 439.227 261.744 440.009C274.963 442.631 290.562 445.616 306.024 447.877C307.873 448.148 309.738 448.429 311.617 448.709C325.527 450.8 339.91 452.962 353.612 452.053C375.152 450.621 396.334 444.39 416.819 438.369C432.37 433.796 448.452 429.066 464.603 426.459C488.097 422.665 512.256 428.126 535.622 433.411C536.92 433.704 538.211 433.996 539.499 434.285C549.187 436.463 558.997 438.861 568.481 441.178C586.437 445.566 605.006 450.102 623.519 453.344C637.675 455.823 654.506 458.212 672.044 457.135C689.256 456.079 706.364 453.305 719.345 451.006C725.739 449.872 732.229 448.662 738.508 447.489C765.453 442.461 793.316 437.259 821.356 436.877L821.37 438.07C793.432 438.449 765.62 443.642 738.726 448.661C732.444 449.834 725.951 451.048 719.55 452.178C706.537 454.484 689.387 457.263 672.115 458.322C669.126 458.507 666.156 458.591 663.212 458.591Z" fill="#FF784E"/>
<path d="M662.201 451.927C648.09 451.927 634.818 449.771 624.295 447.74C606.089 444.223 587.934 439.219 570.378 434.378C561.12 431.825 551.546 429.185 542.082 426.796L541.408 426.626C517.562 420.607 492.905 414.382 468.794 418.284C452.357 420.944 436.027 426.044 420.237 430.978C399.538 437.444 378.132 444.131 356.15 445.44C341.818 446.296 326.932 443.737 312.535 441.265C311.572 441.101 310.614 440.934 309.66 440.773C294.687 438.216 279.646 434.825 266.907 431.843C263.131 430.96 259.358 430.065 255.582 429.17C228.22 422.689 199.927 415.984 171.425 413.446C143.851 410.988 116.447 417.249 89.9464 423.3L88.9353 423.533C84.8611 424.464 80.7123 425.43 76.7036 426.367C51.8735 432.153 26.1992 438.139 0.295275 439.651L0.226676 438.461C26.0292 436.958 51.6527 430.984 76.4322 425.206C80.4438 424.273 84.5926 423.303 88.6698 422.373L89.6809 422.143C116.271 416.071 143.767 409.789 171.533 412.262C200.118 414.809 228.456 421.523 255.86 428.013C259.633 428.908 263.406 429.802 267.182 430.685C279.903 433.665 294.923 437.053 309.863 439.6C310.817 439.764 311.778 439.928 312.741 440.092C327.069 442.553 341.887 445.1 356.081 444.253C377.92 442.953 399.254 436.287 419.885 429.844C435.717 424.899 452.085 419.784 468.609 417.112C492.965 413.171 517.744 419.426 541.707 425.475L542.381 425.645C551.856 428.037 561.437 430.676 570.701 433.232C588.235 438.067 606.367 443.066 624.525 446.574C637.469 449.073 654.589 451.76 672.261 450.35C689.45 448.975 706.528 445.601 719.485 442.816C725.903 441.435 732.417 439.958 738.717 438.533C765.509 432.46 793.218 426.182 821.359 425.502L821.388 426.695C793.367 427.372 765.721 433.638 738.982 439.696C732.68 441.124 726.163 442.601 719.735 443.982C706.743 446.777 689.617 450.159 672.357 451.54C668.942 451.808 665.547 451.927 662.201 451.927Z" fill="#FF784E"/>
<path d="M661.184 445.097C650.5 445.097 639.005 443.722 625.3 440.868C607.461 437.149 589.762 431.75 572.648 426.528C563.626 423.775 554.296 420.926 545.062 418.364C520.39 411.51 496.287 405.664 472.725 409.321C455.608 411.978 438.664 417.392 422.277 422.629C401.014 429.427 379.026 436.454 356.341 437.569C329.933 438.867 301.574 431.064 276.55 424.183C274.722 423.679 272.902 423.181 271.101 422.686C267.531 421.711 263.96 420.723 260.39 419.733C234.436 412.551 207.598 405.127 180.316 402.446C152.337 399.699 124.321 406.282 97.2269 412.65L94.4024 413.312C89.9911 414.347 85.4993 415.423 81.1567 416.467C54.8918 422.769 27.7293 429.286 0.289313 430.7L0.226676 429.51C27.5593 428.105 54.6652 421.6 80.8763 415.31C85.222 414.266 89.7138 413.189 94.128 412.154L96.9525 411.492C124.142 405.104 152.256 398.494 180.433 401.262C207.819 403.952 234.707 411.391 260.709 418.585C264.28 419.572 267.847 420.559 271.417 421.535C273.221 422.027 275.038 422.528 276.869 423.032C301.807 429.892 330.07 437.662 356.287 436.379C378.818 435.273 400.728 428.266 421.919 421.493C438.347 416.241 455.336 410.812 472.546 408.14C496.347 404.447 520.581 410.326 545.384 417.213C554.633 419.781 563.969 422.629 572.997 425.385C590.084 430.599 607.756 435.991 625.545 439.699C644.102 443.567 658.571 444.698 672.452 443.37C689.525 441.736 705.866 438.002 719.604 434.563C726.052 432.949 732.59 431.222 738.916 429.552C765.554 422.519 793.101 415.25 821.353 414.344L821.391 415.537C793.277 416.437 765.796 423.691 739.224 430.706C732.895 432.376 726.351 434.103 719.896 435.72C706.117 439.168 689.721 442.917 672.568 444.557C668.834 444.918 665.064 445.097 661.184 445.097Z" fill="#FF784E"/>
<path d="M660.611 437.909C650.124 437.909 638.922 436.54 626.201 433.737C608.687 429.877 591.412 424.147 574.703 418.603C565.899 415.683 556.796 412.661 547.773 409.953C526.272 403.502 501.221 396.922 475.979 400.54C457.842 403.141 439.934 408.82 422.614 414.311C400.37 421.365 377.368 428.657 353.585 429.537C352.18 429.588 350.772 429.615 349.364 429.615C323.547 429.615 296.868 421.165 273.183 413.664C269.848 412.608 266.514 411.537 263.179 410.469C238.93 402.688 213.856 394.644 188.062 391.92C159.727 388.926 131.121 395.777 103.461 402.401C102.074 402.732 100.69 403.063 99.3088 403.394C94.5844 404.522 89.7764 405.697 85.1265 406.833C57.5792 413.571 29.0953 420.536 0.289313 421.752L0.238605 420.559C28.9253 419.348 57.3525 412.396 84.8432 405.673C89.496 404.537 94.307 403.359 99.0314 402.231C100.412 401.903 101.796 401.572 103.18 401.238C130.939 394.59 159.644 387.718 188.184 390.733C214.1 393.471 239.235 401.533 263.54 409.333C266.874 410.404 270.206 411.471 273.541 412.527C298.424 420.407 326.634 429.343 353.54 428.347C377.162 427.473 400.084 420.204 422.253 413.174C439.618 407.669 457.576 401.975 475.812 399.359C501.289 395.705 526.495 402.321 548.119 408.811C557.159 411.522 566.271 414.546 575.082 417.469C591.761 423.002 609.009 428.726 626.46 432.57C644.07 436.451 658.735 437.566 672.616 436.087C689.674 434.264 705.991 430.083 719.706 426.229C726.178 424.41 732.742 422.462 739.089 420.58C765.584 412.718 792.982 404.587 821.35 403.591L821.391 404.784C793.173 405.775 765.852 413.884 739.429 421.726C733.076 423.611 726.509 425.558 720.028 427.381C706.266 431.246 689.885 435.446 672.741 437.277C668.778 437.697 664.748 437.909 660.611 437.909Z" fill="#FF784E"/>
<path d="M660.179 430.238C649.757 430.238 638.755 428.893 626.866 426.185C610.289 422.406 593.634 416.437 577.525 410.663C545.536 399.198 512.456 387.342 477.921 391.78C458.402 394.289 439.153 400.194 420.538 405.906C396.892 413.16 372.441 420.661 347.154 421.296C346.14 421.323 345.126 421.335 344.118 421.335C315.243 421.335 287.965 411.111 261.548 401.211C239.608 392.988 216.919 384.485 193.464 381.896C164.86 378.74 135.804 385.803 107.702 392.636C106.112 393.024 104.525 393.409 102.945 393.791C97.9607 394.995 92.8843 396.26 87.9749 397.48C59.5059 404.564 30.0676 411.886 0.27738 412.805L0.24159 411.612C29.9036 410.696 59.2793 403.389 87.6886 396.323C92.6009 395.1 97.6773 393.838 102.667 392.63C104.248 392.249 105.832 391.864 107.424 391.476C135.625 384.619 164.786 377.529 193.598 380.709C217.199 383.316 239.959 391.843 261.971 400.093C289.202 410.299 317.364 420.849 347.127 420.103C372.247 419.471 396.621 411.993 420.189 404.764C438.854 399.037 458.152 393.116 477.772 390.596C512.596 386.119 545.811 398.026 577.93 409.539C594.004 415.301 610.626 421.257 627.134 425.021C643.819 428.824 658.735 429.919 672.735 428.362C689.784 426.468 706.084 421.943 719.78 417.768C726.273 415.787 732.859 413.664 739.227 411.606C765.599 403.09 792.872 394.286 821.356 393.385L821.394 394.578C793.078 395.473 765.888 404.254 739.594 412.742C733.22 414.8 726.631 416.927 720.129 418.91C706.382 423.101 690.017 427.643 672.87 429.549C668.721 430.008 664.498 430.238 660.179 430.238Z" fill="#FF784E"/>
<path d="M657.805 421.499C647.303 421.499 637.174 420.354 627.167 418.048C610.053 414.105 593.246 408 576.994 402.097C545.578 390.686 513.092 378.886 477.942 382.844C456.649 385.242 435.654 391.351 415.352 397.259C389.886 404.671 363.553 412.333 336.366 412.757C335.82 412.766 335.272 412.769 334.729 412.769C307.602 412.769 282.855 402.339 258.902 392.243C238.632 383.7 217.673 374.866 195.373 372.387C166.593 369.19 137.298 376.441 108.966 383.453C107.52 383.811 106.079 384.166 104.645 384.521C99.4758 385.794 94.2085 387.133 89.1113 388.431C60.2784 395.762 30.4613 403.347 0.274399 403.86L0.253519 402.667C30.3003 402.157 60.0488 394.59 88.816 387.277C93.9133 385.979 99.1835 384.64 104.358 383.363C105.793 383.008 107.234 382.653 108.68 382.296C137.113 375.26 166.513 367.982 195.504 371.2C217.978 373.697 239.017 382.564 259.367 391.142C283.687 401.393 308.837 411.99 336.351 411.564C363.38 411.143 389.633 403.502 415.023 396.114C435.374 390.191 456.419 384.067 477.813 381.657C493.716 379.865 510.416 381.106 528.867 385.445C545.307 389.314 561.624 395.24 577.408 400.973C593.628 406.863 610.399 412.957 627.445 416.882C662.58 424.974 695.269 416.995 719.822 409.139C726.33 407.057 732.93 404.811 739.31 402.64C765.599 393.695 792.782 384.446 821.371 383.885L821.394 385.078C792.991 385.636 765.897 394.855 739.695 403.77C733.306 405.945 726.703 408.191 720.183 410.275C702.791 415.841 688.164 419.125 674.149 420.61C668.575 421.204 663.14 421.499 657.805 421.499Z" fill="#FF784E"/>
<path d="M660.733 412.128C650.572 412.128 639.927 410.821 628.074 408.155C611.425 404.412 594.788 398.655 578.703 393.087C546.142 381.821 512.474 370.171 477.091 374.678C455.214 377.464 433.504 383.802 412.512 389.931C385.445 397.835 357.453 406.007 328.74 406.684C301.792 407.308 277.269 395.971 253.548 384.995C234.659 376.256 215.126 367.218 194.484 364.278C167.73 360.472 139.798 367.299 112.787 373.902C109.987 374.586 107.213 375.266 104.466 375.925C99.3923 377.142 94.2205 378.421 89.2216 379.656C60.3411 386.79 30.4792 394.163 0.274399 394.912L0.244571 393.719C30.3212 392.976 60.1174 385.615 88.9353 378.499C93.9371 377.264 99.109 375.987 104.185 374.767C106.929 374.108 109.703 373.431 112.501 372.745C138.357 366.422 167.667 359.258 194.648 363.096C215.463 366.058 235.077 375.134 254.046 383.912C277.642 394.828 302.036 406.112 328.707 405.491C357.265 404.817 385.177 396.669 412.172 388.786C433.211 382.644 454.963 376.292 476.936 373.494C512.599 368.951 546.401 380.649 579.091 391.959C595.146 397.516 611.75 403.26 628.333 406.989C645.209 410.782 659.609 411.805 673.651 410.201C690.92 408.229 707.733 403.496 720.454 399.595C726.744 397.665 733.115 395.604 739.277 393.612C765.605 385.096 792.827 376.292 821.347 375.227L821.391 376.42C793.039 377.476 765.894 386.256 739.644 394.745C733.479 396.74 727.102 398.801 720.803 400.734C708.035 404.653 691.15 409.404 673.785 411.385C669.49 411.88 665.157 412.128 660.733 412.128Z" fill="#FF784E"/>
<path d="M663.442 400.519C653.519 400.519 642.906 399.305 630.463 396.8C614.088 393.504 597.422 388.428 581.301 383.518C547.272 373.154 512.083 362.437 476.474 367.245C454.206 370.252 432.027 376.485 410.576 382.513C382.65 390.361 353.776 398.473 324.305 399.598C302.078 400.442 279.655 390.432 259.868 381.598C257.112 380.366 254.309 379.095 251.598 377.869C232.953 369.42 213.674 360.681 193.088 357.358C167.59 353.242 139.252 359.854 114.249 365.691C110.646 366.532 107.243 367.326 103.816 368.101C98.9091 369.208 93.9133 370.365 89.0814 371.484C60.2247 378.165 30.3838 385.072 0.27738 385.97L0.24159 384.777C30.2287 383.885 60.013 376.99 88.813 370.32C93.6448 369.202 98.6437 368.045 103.553 366.935C106.974 366.163 110.377 365.369 113.977 364.528C139.088 358.667 167.548 352.028 193.279 356.18C214.023 359.529 233.374 368.301 252.09 376.784C254.798 378.012 257.599 379.28 260.355 380.512C280.022 389.293 302.311 399.246 324.257 398.408C353.585 397.289 382.394 389.194 410.251 381.368C431.741 375.331 453.961 369.086 476.31 366.067C512.182 361.223 547.493 371.979 581.644 382.379C597.735 387.279 614.375 392.35 630.693 395.634C648.517 399.222 662.544 400.146 676.177 398.628C689.629 397.134 703.838 394.193 722.25 389.102C728.164 387.464 734.153 385.734 739.945 384.061C766.145 376.491 793.236 368.662 821.341 367.335L821.397 368.528C793.432 369.849 766.41 377.658 740.277 385.21C734.481 386.883 728.489 388.616 722.569 390.253C704.095 395.365 689.826 398.315 676.309 399.818C672.091 400.281 667.832 400.519 663.442 400.519Z" fill="#FF784E"/>
<path d="M319.007 391.166C298.779 391.166 277.943 382.469 259.46 374.753L257.775 374.049C255.034 372.906 252.248 371.728 249.552 370.589C230.919 362.709 211.652 354.56 191.313 351.273C166.361 347.238 138.53 353.215 113.974 358.488C110.124 359.315 106.488 360.096 102.828 360.851C98.1128 361.823 93.3168 362.834 88.6758 363.812C59.9146 369.882 30.175 376.154 0.274399 377.016L0.238605 375.823C30.0318 374.967 59.7177 368.704 88.4283 362.646C93.0692 361.668 97.8682 360.654 102.587 359.681C106.24 358.93 109.876 358.148 113.724 357.322C138.381 352.028 166.328 346.027 191.504 350.098C211.983 353.409 231.319 361.587 250.017 369.494C252.71 370.634 255.496 371.812 258.234 372.954L259.919 373.658C279.13 381.675 300.903 390.757 321.728 389.925C351.455 388.723 380.834 381.037 409.249 373.604C430.942 367.931 453.371 362.062 475.83 359.109C502.229 355.637 528.088 360.397 552.31 365.572C561.744 367.588 571.297 369.813 580.534 371.967C598.042 376.047 616.146 380.264 634.182 383.223C647.392 385.389 663.167 387.384 680.016 385.758C693.151 384.491 707.429 381.997 724.946 377.908C730.377 376.641 735.877 375.31 741.195 374.025C767.108 367.758 793.904 361.277 821.341 360.036L821.394 361.229C794.071 362.467 767.332 368.934 741.476 375.185C736.155 376.474 730.652 377.804 725.214 379.071C707.644 383.172 693.315 385.675 680.126 386.945C663.042 388.592 646.491 386.45 633.982 384.398C615.908 381.437 597.786 377.213 580.257 373.127C571.023 370.977 561.475 368.752 552.053 366.738C527.93 361.584 502.187 356.842 475.979 360.29C453.595 363.234 431.201 369.092 409.544 374.756C381.07 382.203 351.628 389.907 321.769 391.112C320.857 391.148 319.932 391.166 319.007 391.166Z" fill="#FF784E"/>
<path d="M317.961 381.556C298.096 381.556 277.409 373.935 259.06 367.174L256.403 366.195C253.653 365.184 250.903 364.161 248.15 363.135C229.21 356.084 209.626 348.792 189.267 345.803C164.359 342.15 138.002 347.152 112.513 351.986C108.913 352.669 105.19 353.376 101.596 354.032C97.0957 354.853 92.5174 355.706 88.0882 356.532C59.4791 361.865 29.8976 367.377 0.274399 368.066L0.247557 366.873C29.7753 366.187 59.3091 360.681 87.8705 355.357C92.2997 354.531 96.878 353.677 101.382 352.857C104.973 352.201 108.695 351.497 112.292 350.814C137.877 345.959 164.336 340.939 189.443 344.622C209.928 347.626 229.571 354.942 248.567 362.017C251.317 363.04 254.064 364.063 256.814 365.074L259.475 366.052C278.605 373.1 300.295 381.091 320.785 380.306C350.54 379.17 380.121 372.241 408.73 365.542C430.503 360.442 453.016 355.172 475.472 352.478C502.739 349.21 530.859 353.499 553.449 356.946C563.241 358.441 573.176 360.087 582.783 361.683C601.004 364.704 619.845 367.83 638.492 370.034C652.096 371.645 668.238 373.127 684.815 371.928C697.718 370.997 711.536 369.175 728.301 366.201C733.172 365.336 738.111 364.436 742.886 363.562C768.385 358.903 794.748 354.086 821.35 353.173L821.391 354.366C794.876 355.276 768.555 360.087 743.101 364.737C738.323 365.611 733.384 366.512 728.51 367.377C711.7 370.359 697.843 372.185 684.898 373.118C668.22 374.323 652.009 372.835 638.349 371.218C619.675 369.008 600.819 365.882 582.586 362.858C572.982 361.265 563.05 359.619 553.267 358.125C524.625 353.755 500.72 350.65 475.612 353.663C453.222 356.347 430.742 361.611 409.002 366.703C380.339 373.416 350.701 380.357 320.83 381.496C319.875 381.538 318.918 381.556 317.961 381.556Z" fill="#FF784E"/>
<path d="M318.647 371.141C297.956 371.141 277.2 364.731 257.121 358.53C255.961 358.172 254.804 357.814 253.656 357.462C251.481 356.794 249.307 356.12 247.133 355.446C227.397 349.326 206.99 343 186.115 340.605C160.849 337.706 134.489 341.965 108.996 346.087C105.551 346.645 101.99 347.22 98.5273 347.76C94.808 348.342 91.0858 348.932 87.3664 349.523C58.9512 354.032 29.5695 358.694 0.271414 359.127L0.253519 357.934C29.4681 357.501 58.808 352.845 87.1785 348.345C90.9008 347.754 94.6231 347.163 98.3424 346.582C101.802 346.042 105.361 345.466 108.802 344.909C134.375 340.775 160.816 336.501 186.246 339.421C207.234 341.828 227.695 348.175 247.482 354.31C249.656 354.984 251.83 355.658 254.002 356.326C255.153 356.681 256.307 357.036 257.47 357.397C277.591 363.61 298.404 370.031 319.034 369.954C342.126 369.861 365.652 365.271 388.404 360.83C391.112 360.302 393.808 359.774 396.493 359.258C399.955 358.593 403.418 357.919 406.881 357.245C428.717 352.994 451.298 348.601 473.811 346.215C500.072 343.432 526.713 345.815 552.474 348.121L553.589 348.219C564.169 349.165 574.918 350.221 585.315 351.238C604.04 353.075 623.406 354.972 642.492 356.311C671.214 358.327 700.408 357.644 731.737 354.223C736.211 353.734 740.682 353.233 745.15 352.732C770.034 349.943 795.765 347.056 821.359 346.609L821.38 347.802C795.842 348.249 770.138 351.13 745.281 353.916C740.813 354.417 736.342 354.918 731.866 355.407C700.465 358.834 671.202 359.52 642.408 357.498C623.308 356.159 603.933 354.259 585.199 352.422C574.808 351.402 564.061 350.349 553.485 349.403L552.369 349.305C526.662 347.005 500.081 344.625 473.936 347.396C451.477 349.776 428.922 354.167 407.111 358.411C403.648 359.085 400.182 359.759 396.719 360.427C394.035 360.943 391.339 361.471 388.633 361.999C365.828 366.449 342.245 371.054 319.04 371.147C318.912 371.141 318.778 371.141 318.647 371.141Z" fill="#FF784E"/>
<path d="M319.652 360.066C294.088 360.066 268.852 353.704 244.436 347.551C224.697 342.576 204.285 337.431 183.854 335.692C157.652 333.464 130.713 336.945 104.663 340.309C102.13 340.638 99.6071 340.963 97.0897 341.282C93.612 341.723 90.1373 342.174 86.6596 342.621C58.4352 346.263 29.2504 350.027 0.262466 350.173L0.256504 348.98C29.1699 348.834 58.3159 345.073 86.5075 341.437C89.9852 340.989 93.4629 340.539 96.9406 340.098C99.4579 339.779 101.981 339.45 104.51 339.125C130.623 335.752 157.628 332.262 183.958 334.502C204.487 336.25 224.945 341.407 244.732 346.394C269.276 352.583 294.657 358.966 320.287 358.873C350.292 358.748 380.539 353.666 409.789 348.753C430.694 345.24 452.312 341.61 473.664 339.817C497.433 337.822 521.705 338.594 545.178 339.343C548.444 339.447 551.71 339.552 554.97 339.647C565.982 339.975 577.176 340.348 588.003 340.709C607.515 341.362 627.689 342.036 647.538 342.457C680.129 343.146 713.227 342.275 745.234 341.431C770.18 340.772 795.974 340.098 821.374 340.157L821.371 341.35C795.98 341.291 770.201 341.968 745.263 342.624C713.242 343.468 680.132 344.342 647.511 343.65C627.656 343.229 607.476 342.555 587.961 341.902C577.137 341.541 565.943 341.165 554.931 340.84C551.668 340.745 548.403 340.64 545.137 340.536C521.696 339.79 497.46 339.018 473.76 341.007C452.455 342.797 430.864 346.424 409.983 349.931C380.688 354.853 350.393 359.944 320.29 360.069C320.078 360.066 319.863 360.066 319.652 360.066Z" fill="#FF784E"/>
<path d="M322.267 348.676C322.226 348.676 322.181 348.676 322.139 348.676C296.235 348.667 270.394 344.008 245.403 339.501C224.602 335.752 203.094 331.872 181.676 330.702C148.516 328.889 114.896 332.355 82.3855 335.71C55.5003 338.484 27.6965 341.356 0.259485 341.228L0.265452 340.035C27.6458 340.163 55.4108 337.294 82.2632 334.523C114.821 331.165 148.489 327.693 181.742 329.512C203.235 330.688 224.781 334.574 245.617 338.329C270.558 342.827 296.346 347.477 322.142 347.486C322.184 347.486 322.229 347.486 322.27 347.486C351.589 347.486 381.219 343.704 409.881 340.044C430.739 337.381 452.306 334.628 473.59 333.351C492.685 332.206 512.158 331.884 530.993 331.573C539.3 331.436 547.89 331.293 556.324 331.084C567.763 330.798 579.198 330.509 590.636 330.216C610.918 329.7 631.889 329.169 652.516 328.671C687.905 327.818 723.687 329.533 758.291 331.189C778.949 332.179 800.31 333.199 821.385 333.667L821.359 334.86C800.269 334.392 778.898 333.369 758.232 332.379C723.649 330.723 687.887 329.011 652.543 329.861C631.915 330.359 610.945 330.89 590.666 331.406C579.228 331.696 567.792 331.988 556.354 332.274C547.913 332.486 539.324 332.626 531.014 332.763C512.194 333.074 492.732 333.396 473.664 334.538C452.419 335.812 430.873 338.562 410.034 341.222C381.332 344.888 351.661 348.676 322.267 348.676Z" fill="#FF784E"/>
<path d="M324.102 337.249C298.162 337.249 272.085 334.201 246.846 331.251C225.219 328.725 202.856 326.109 180.719 325.432C149.02 324.46 116.888 326.643 85.8125 328.752C57.8029 330.655 28.8388 332.62 0.256504 332.277L0.271414 331.084C28.806 331.43 57.7462 329.462 85.732 327.562C116.835 325.45 148.996 323.264 180.755 324.239C202.942 324.919 225.333 327.535 246.986 330.067C272.89 333.095 299.68 336.217 326.255 336.05C353.814 335.868 381.723 333.479 408.712 331.171C430.39 329.316 452.804 327.398 474.926 326.631C515.815 325.214 557.258 322.232 597.335 319.351C617.226 317.919 637.791 316.44 658.049 315.169L661.634 314.942C676.386 314.006 691.642 313.037 706.695 313.994C718.342 314.737 730.416 316.046 743.608 318.003C746.125 318.375 748.64 318.751 751.151 319.127C774.031 322.548 797.689 326.085 821.394 326.986L821.35 328.179C797.575 327.272 773.885 323.732 750.975 320.305C748.464 319.929 745.949 319.554 743.432 319.181C730.273 317.23 718.232 315.924 706.621 315.181C691.642 314.227 676.425 315.193 661.709 316.129L658.121 316.356C637.869 317.627 617.304 319.106 597.416 320.538C557.327 323.422 515.871 326.405 474.962 327.821C452.873 328.588 430.473 330.503 408.811 332.358C381.797 334.669 353.865 337.058 326.258 337.243C325.539 337.246 324.821 337.249 324.102 337.249Z" fill="#FF784E"/>
<path d="M327.588 326.079C301.807 326.079 275.712 324.415 250.467 322.805C227.087 321.313 202.907 319.771 179.07 319.556C150.287 319.3 121.049 320.41 92.7739 321.48C62.4587 322.632 31.1145 323.819 0.250538 323.329L0.268433 322.136C31.0996 322.629 62.4289 321.438 92.7262 320.29C121.016 319.216 150.27 318.107 179.079 318.363C202.951 318.575 227.146 320.12 250.542 321.611C275.992 323.234 302.314 324.916 328.274 324.883C354.82 324.854 381.764 323.511 407.823 322.214C429.802 321.119 452.527 319.986 474.917 319.646C516.966 319.005 559.358 313.973 600.357 309.105C620.549 306.707 641.427 304.229 662.022 302.305L664.336 302.087C679.646 300.65 695.475 299.161 711.098 300.56C722.569 301.586 734.219 303.537 746.71 306.522C748.974 307.062 751.229 307.608 753.478 308.148C776.342 313.66 797.939 318.864 821.394 319.947L821.338 321.14C797.766 320.052 776.118 314.832 753.197 309.308C750.948 308.765 748.693 308.223 746.433 307.683C733.998 304.712 722.405 302.77 710.993 301.747C695.478 300.357 679.703 301.84 664.45 303.274L662.132 303.492C641.552 305.416 620.68 307.894 600.494 310.29C559.468 315.16 517.043 320.198 474.932 320.839C452.565 321.179 429.847 322.309 407.88 323.404C381.806 324.701 354.846 326.047 328.274 326.076C328.048 326.076 327.818 326.079 327.588 326.079Z" fill="#FF784E"/>
<path d="M325.575 315.399C301.702 315.399 277.496 314.763 254.058 314.149C228.736 313.484 202.549 312.798 176.791 312.911C154.317 313.01 131.449 313.38 109.336 313.734C73.5749 314.31 36.5966 314.904 0.250538 314.385L0.268433 313.192C36.5936 313.711 73.5659 313.117 109.318 312.541C131.434 312.186 154.305 311.82 176.788 311.718C202.567 311.605 228.76 312.291 254.091 312.956C278.298 313.591 303.331 314.25 327.958 314.206C352.621 314.161 377.69 313.669 401.933 313.195C425.424 312.735 449.717 312.258 473.617 312.189C516.715 312.064 559.9 305.511 601.666 299.176C622.091 296.077 643.214 292.874 664.089 290.455L665.145 290.333C681.111 288.481 697.619 286.569 713.875 288.188C725.191 289.316 736.936 291.797 748.792 295.564C751.246 296.343 753.68 297.127 756.102 297.903C777.714 304.849 798.127 311.408 821.397 312.404L821.347 313.597C797.915 312.592 777.428 306.01 755.738 299.039C753.319 298.261 750.886 297.479 748.434 296.701C736.659 292.961 724.994 290.497 713.761 289.375C697.634 287.768 681.188 289.674 665.285 291.517L664.229 291.639C643.375 294.055 622.264 297.259 601.848 300.357C560.041 306.701 516.811 313.26 473.626 313.385C449.735 313.454 425.448 313.931 401.96 314.391C377.711 314.865 352.636 315.357 327.964 315.402C327.165 315.399 326.369 315.399 325.575 315.399Z" fill="#FF784E"/>
<path d="M128.866 305.747C86.0124 305.747 42.9495 305.672 0.256504 305.434L0.262466 304.241C80.6675 304.688 162.436 304.56 241.51 304.438C270.146 304.393 299.755 304.345 328.874 304.327C348.759 304.315 368.975 304.262 388.529 304.208C416.425 304.133 445.27 304.056 473.641 304.098C473.828 304.098 474.016 304.098 474.204 304.098C517.196 304.098 559.957 296.793 601.317 289.724C622.404 286.121 644.207 282.396 665.837 279.67C692.65 276.288 721.423 274.644 750.131 285.435C754.375 287.031 758.62 288.815 762.724 290.539C768.361 292.907 774.186 295.353 780.073 297.339C792.597 301.565 806.112 303.799 821.388 304.175L821.359 305.368C805.959 304.989 792.332 302.735 779.692 298.469C773.765 296.471 767.919 294.013 762.261 291.639C758.166 289.918 753.934 288.141 749.71 286.554C721.247 275.855 692.65 277.49 665.986 280.854C644.383 283.577 622.592 287.303 601.52 290.903C560.112 297.977 517.297 305.291 474.204 305.291C474.013 305.291 473.828 305.291 473.638 305.291C445.27 305.246 416.425 305.326 388.532 305.401C368.978 305.455 348.762 305.508 328.877 305.52C299.758 305.538 270.149 305.586 241.513 305.631C204.419 305.687 166.725 305.747 128.866 305.747Z" fill="#FF784E"/>
<path d="M224.519 297.909C208.248 297.909 191.937 297.655 175.75 296.93C137.063 295.201 97.7638 295.654 59.7595 296.092C40.2652 296.316 20.1057 296.552 0.256504 296.486L0.259485 295.293C20.0998 295.356 40.2532 295.126 59.7446 294.899C97.7668 294.461 137.081 294.007 175.804 295.74C211.258 297.327 247.338 296.653 282.232 296.003C297.84 295.711 313.979 295.409 329.849 295.317C357.176 295.153 384.956 295.281 411.823 295.403C432.191 295.496 453.252 295.594 473.966 295.561C503.088 295.517 531.181 293.169 559.844 288.379C572.383 286.286 585.1 283.935 597.401 281.662C619.657 277.552 642.671 273.299 665.509 270.391C682.429 268.235 696.03 267.501 708.309 268.086C723.669 268.813 737.354 271.617 750.146 276.652C754.235 278.262 758.324 280.052 762.276 281.785C768.101 284.335 774.123 286.975 780.238 289.071C792.46 293.262 805.605 295.302 820.389 295.302C820.714 295.302 821.039 295.302 821.368 295.299L821.374 296.492C821.046 296.495 820.717 296.495 820.389 296.495C805.47 296.495 792.201 294.434 779.85 290.199C773.691 288.087 767.645 285.438 761.796 282.876C757.853 281.149 753.776 279.363 749.708 277.761C721.134 266.514 691.186 268.321 665.661 271.575C642.856 274.48 619.857 278.731 597.619 282.838C585.315 285.11 572.588 287.461 560.044 289.557C531.312 294.356 503.159 296.713 473.969 296.754C453.251 296.787 432.188 296.689 411.82 296.596C384.956 296.474 357.179 296.346 329.858 296.51C313.997 296.605 297.861 296.907 282.256 297.196C263.266 297.548 243.92 297.909 224.519 297.909Z" fill="#FF784E"/>
<path d="M228.542 291.058C211.174 291.058 193.777 290.36 176.558 288.32C147.761 284.911 120.936 283.643 94.5486 284.448C83.4921 284.785 72.2596 285.295 61.3939 285.79C41.3687 286.7 20.6575 287.64 0.253519 287.538L0.259485 286.345C20.6396 286.453 41.33 285.51 61.3402 284.6C72.2089 284.105 83.4503 283.595 94.5128 283.258C120.96 282.45 147.842 283.72 176.698 287.136C212.94 291.428 250.044 289.766 285.927 288.159C302.582 287.413 319.804 286.64 336.703 286.476C362.822 286.223 389.37 286.652 415.044 287.067C435.627 287.401 456.914 287.744 477.846 287.732C506.747 287.717 534.611 285.23 563.035 280.129C574.742 278.03 586.613 275.676 598.096 273.401C619.922 269.073 642.495 264.602 664.942 261.658C681.427 259.496 695.015 258.843 707.703 259.594C722.81 260.492 736.456 263.418 749.418 268.545C753.227 270.051 757.051 271.698 760.749 273.29C767.117 276.031 773.702 278.868 780.398 281.066C793.024 285.212 806.416 286.939 821.35 286.351L821.397 287.544C806.32 288.141 792.788 286.393 780.029 282.202C773.282 279.986 766.673 277.141 760.281 274.388C756.591 272.798 752.777 271.158 748.983 269.658C719.008 257.802 688.409 259.788 665.1 262.845C642.692 265.783 620.14 270.254 598.331 274.576C586.845 276.852 574.969 279.208 563.25 281.311C534.757 286.426 506.822 288.916 477.852 288.931C477.548 288.931 477.244 288.931 476.936 288.931C456.288 288.931 435.317 288.591 415.029 288.263C389.364 287.848 362.825 287.419 336.718 287.672C319.843 287.836 302.63 288.609 285.984 289.355C267.077 290.196 247.831 291.058 228.542 291.058Z" fill="#FF784E"/>
<path d="M233.365 283.977C214.312 283.977 195.271 282.766 176.555 279.142C174.399 278.725 172.254 278.298 170.122 277.875C159.083 275.676 148.659 273.603 137.483 272.917C125.195 272.163 112.161 272.231 95.2197 273.147C84.1065 273.747 72.8233 274.624 61.9099 275.474C41.7356 277.045 20.8782 278.674 0.253519 278.593L0.256504 277.4C20.8245 277.481 41.667 275.852 61.8175 274.284C72.7368 273.433 84.0259 272.554 95.154 271.954C112.143 271.038 125.219 270.967 137.555 271.727C148.808 272.419 159.274 274.501 170.351 276.705C172.484 277.129 174.626 277.555 176.779 277.973C214.569 285.289 253.772 282.727 291.681 280.252C309.224 279.106 327.368 277.922 345.066 277.743C370.463 277.487 396.26 278.337 421.203 279.16C441.285 279.822 462.047 280.505 482.478 280.607C510.735 280.753 537.954 278.167 565.675 272.709C576.842 270.511 588.158 268.041 599.101 265.652C619.899 261.112 641.403 256.421 662.851 253.378C678.745 251.127 692.799 250.453 705.816 251.323C720.723 252.32 734.428 255.314 747.712 260.474C751.378 261.9 755.067 263.439 758.634 264.93C765.572 267.826 772.742 270.824 780.041 273.082C793.018 277.099 806.52 278.513 821.314 277.397L821.403 278.587C806.455 279.712 792.809 278.286 779.686 274.224C772.334 271.948 765.134 268.942 758.172 266.034C754.611 264.545 750.93 263.009 747.277 261.59C722.53 251.977 696.543 249.808 663.012 254.563C641.609 257.596 620.125 262.285 599.348 266.821C588.399 269.21 577.077 271.683 565.898 273.881C538.101 279.351 510.801 281.946 482.463 281.8C462.017 281.695 441.244 281.012 421.156 280.35C396.224 279.53 370.442 278.68 345.069 278.936C327.403 279.115 309.278 280.296 291.749 281.442C272.515 282.697 252.937 283.977 233.365 283.977Z" fill="#FF784E"/>
<path d="M238.895 276.708C217.924 276.708 197.055 274.949 176.74 269.574C174.205 268.903 171.679 268.205 169.233 267.531C158.8 264.65 148.942 261.927 137.984 261.044C125.872 260.071 112.889 260.241 95.8848 261.596C84.7209 262.484 73.4019 263.758 62.4557 264.987C42.1353 267.271 21.1258 269.631 0.259485 269.643V268.45C21.0602 268.438 42.0338 266.081 62.3185 263.803C73.2736 262.571 84.6046 261.297 95.7863 260.408C112.856 259.048 125.899 258.878 138.077 259.857C149.151 260.745 159.059 263.484 169.549 266.383C171.989 267.057 174.515 267.755 177.041 268.423C216.713 278.918 258.645 275.548 299.197 272.285C317.928 270.779 337.3 269.222 356.045 269.085C380.53 268.909 405.36 270.263 429.37 271.572C448.798 272.634 468.889 273.729 488.676 274.006C515.752 274.388 542.017 271.68 568.977 265.732C579.478 263.415 590.111 260.808 600.395 258.285C619.931 253.492 640.136 248.538 660.361 245.355C692.233 240.341 719.285 242.617 745.49 252.514C747.032 253.095 748.565 253.68 750.089 254.258C773.276 263.066 795.18 271.387 821.299 268.447L821.433 269.631C817.726 270.048 814.099 270.242 810.547 270.242C788.806 270.242 769.715 262.988 749.666 255.371C748.142 254.792 746.612 254.211 745.067 253.629C719.061 243.807 692.203 241.552 660.542 246.533C640.368 249.707 620.191 254.655 600.676 259.442C590.386 261.965 579.744 264.575 569.23 266.896C542.178 272.861 515.821 275.575 488.655 275.196C468.845 274.919 448.742 273.821 429.301 272.759C405.309 271.45 380.497 270.096 356.051 270.272C337.347 270.406 317.999 271.963 299.289 273.466C279.354 275.08 259.078 276.708 238.895 276.708Z" fill="#FF784E"/>
<path d="M503.156 269.055C500.732 269.055 498.304 269.025 495.87 268.96C476.796 268.467 457.481 266.905 438.804 265.395C415.879 263.54 392.171 261.634 368.757 261.676C349.707 261.718 330.368 263.334 311.667 264.9C301.079 265.786 290.13 266.702 279.354 267.322C245.176 269.288 209.125 270.32 177.041 259.752C174.041 258.765 171.097 257.724 168.249 256.719C158.454 253.262 149.202 249.996 138.464 248.943C123.167 247.443 108.018 248.663 96.529 249.889C85.3174 251.088 73.9656 252.77 62.9896 254.396C42.5439 257.426 21.3942 260.561 0.262466 260.695L0.253519 259.502C21.3018 259.367 42.4067 256.242 62.8166 253.214C73.8046 251.586 85.1653 249.904 96.4037 248.702C107.949 247.467 123.179 246.244 138.584 247.753C149.464 248.818 158.782 252.108 168.648 255.592C171.491 256.594 174.429 257.632 177.417 258.616C209.304 269.121 245.227 268.086 279.288 266.126C290.046 265.509 300.987 264.593 311.569 263.707C330.294 262.141 349.657 260.522 368.754 260.48C392.215 260.441 415.951 262.347 438.899 264.205C457.561 265.714 476.862 267.274 495.9 267.767C521.616 268.429 546.738 265.583 572.702 259.063C582.461 256.615 592.324 253.85 601.866 251.18C619.985 246.104 638.725 240.857 657.59 237.511C672.604 234.848 686.724 234.111 700.763 235.256C715.014 236.416 728.799 239.485 742.91 244.636C744.404 245.182 745.89 245.728 747.366 246.271C771.573 255.159 794.438 263.549 821.281 259.511L821.46 260.689C794.315 264.778 771.31 256.331 746.955 247.389C745.478 246.847 743.993 246.301 742.502 245.758C715.094 235.751 687.389 233.44 657.799 238.686C638.99 242.021 620.283 247.261 602.188 252.329C592.641 255.004 582.768 257.769 572.994 260.221C549.381 266.15 526.46 269.055 503.156 269.055Z" fill="#FF784E"/>
<path d="M512.519 263.069C509.551 263.069 506.58 263.009 503.598 262.893C485.312 262.174 466.852 260.116 449.001 258.127C427.213 255.699 404.683 253.188 382.328 253.095C362.115 253.018 341.586 254.891 321.731 256.707C310.432 257.742 298.75 258.81 287.261 259.505C270.415 260.525 250.843 261.521 231.733 260.465C210.691 259.302 192.924 255.812 177.417 249.796C173.978 248.463 170.659 247.034 167.449 245.657C158.221 241.687 149.506 237.94 138.948 236.724C123.877 234.988 108.71 236.548 97.1792 238.102C85.9199 239.617 74.5472 241.716 63.5474 243.745C42.9674 247.541 21.6865 251.467 0.268433 251.747L0.253519 250.554C21.5702 250.277 42.8004 246.36 63.3326 242.572C74.3474 240.541 85.735 238.439 97.0241 236.92C108.623 235.358 123.885 233.789 139.088 235.539C149.819 236.774 158.612 240.556 167.924 244.562C171.121 245.937 174.429 247.36 177.85 248.687C211.279 261.652 250.196 260.555 287.192 258.318C298.663 257.623 310.337 256.555 321.626 255.523C341.508 253.704 362.067 251.828 382.337 251.905C404.754 251.995 427.318 254.512 449.138 256.943C466.968 258.929 485.404 260.984 503.652 261.703C528.431 262.678 551.627 259.77 576.648 252.546C585.62 249.957 594.672 247.028 603.426 244.201C620.048 238.826 637.236 233.27 654.682 229.753C669.255 226.815 683.395 226.016 697.912 227.311C711.721 228.542 725.539 231.644 740.154 236.798C741.631 237.317 743.098 237.839 744.562 238.358C769.837 247.318 793.713 255.776 821.266 250.572L821.487 251.744C815.554 252.865 809.795 253.361 804.161 253.361C783.325 253.361 764.182 246.575 744.166 239.48C742.704 238.961 741.234 238.442 739.76 237.92C710.486 227.6 682.733 225.312 654.92 230.922C637.541 234.427 620.385 239.975 603.796 245.337C595.033 248.171 585.971 251.1 576.982 253.695C555.179 259.979 534.005 263.069 512.519 263.069Z" fill="#FF784E"/>
<path d="M521.467 257.086C517.589 257.086 513.67 256.967 509.697 256.734C492.72 255.732 475.663 253.247 459.169 250.843C438.151 247.783 416.413 244.616 394.694 244.502C373.604 244.392 352.183 246.498 331.469 248.535C319.07 249.755 306.251 251.013 293.643 251.783C254.786 254.157 213.933 255.237 179.058 240.413C175.225 238.785 171.574 236.718 168.043 234.722C163.784 232.315 159.381 229.825 154.687 228.128C149.909 226.401 144.612 225.16 138.945 224.438C124.625 222.616 110.282 224.346 99.3834 226.055C87.5514 227.91 75.6359 230.541 64.1081 233.082C43.4029 237.648 21.9937 242.37 0.271414 242.796L0.247557 241.603C21.8506 241.18 43.2 236.47 63.8486 231.916C75.3913 229.368 87.3277 226.738 99.1955 224.874C110.171 223.153 124.625 221.411 139.091 223.251C144.844 223.985 150.228 225.247 155.089 227C159.877 228.73 164.327 231.248 168.628 233.678C172.129 235.659 175.75 237.708 179.52 239.31C214.157 254.032 254.855 252.952 293.566 250.587C306.152 249.817 318.963 248.559 331.349 247.342C352.093 245.302 373.544 243.199 394.7 243.303C416.503 243.417 438.282 246.59 459.342 249.656C475.812 252.054 492.843 254.536 509.769 255.535C534.134 256.975 556.462 254.008 580.033 246.193C588.411 243.417 596.837 240.249 604.983 237.189C620.319 231.423 636.178 225.464 652.478 221.817C678.862 215.911 705.95 218.208 737.723 229.052C739.11 229.527 740.494 230.001 741.875 230.475C768.197 239.5 793.06 248.028 821.239 241.618L821.505 242.781C814.549 244.362 807.797 245.048 801.187 245.048C780.697 245.048 761.516 238.471 741.49 231.602C740.109 231.128 738.729 230.654 737.339 230.183C705.783 219.416 678.901 217.128 652.737 222.983C636.521 226.613 620.701 232.56 605.4 238.307C597.243 241.373 588.808 244.544 580.406 247.327C560.53 253.921 541.531 257.086 521.467 257.086Z" fill="#FF784E"/>
<path d="M529.511 250.942C525.389 250.942 521.21 250.784 516.954 250.467C500.657 249.259 484.399 246.307 468.678 243.449C448.769 239.834 428.186 236.094 407.409 235.891C385.224 235.674 362.673 238.057 340.864 240.362C327.779 241.746 314.25 243.175 300.954 244.028C287.714 244.875 274.262 245.57 260.909 245.57C232.321 245.57 204.171 242.385 179.419 230.678C174.873 228.527 170.665 226.055 166.593 223.663C158.024 218.625 149.927 213.868 139.431 212.326C125.389 210.265 111.001 212.299 100.037 214.303C88.1598 216.475 76.2264 219.52 64.6867 222.467C43.8562 227.791 22.3129 233.291 0.274399 233.851L0.244571 232.658C22.1488 232.101 43.6236 226.616 64.3914 221.312C75.952 218.36 87.9063 215.309 99.8218 213.131C110.878 211.112 125.392 209.06 139.604 211.148C150.329 212.723 158.522 217.539 167.196 222.637C171.243 225.017 175.431 227.475 179.926 229.601C215.982 246.653 259.445 245.489 300.876 242.838C314.149 241.988 327.666 240.559 340.736 239.178C362.577 236.87 385.165 234.484 407.418 234.701C428.296 234.907 448.933 238.656 468.889 242.28C484.581 245.129 500.806 248.075 517.04 249.28C540.621 251.031 561.833 247.935 583.794 239.545C591.415 236.634 599.044 233.303 606.42 230.084C620.301 224.027 634.657 217.76 649.647 213.969C663.409 210.489 677.546 209.618 692.868 211.306C705.663 212.717 719.1 215.854 735.152 221.181C736.581 221.655 738.004 222.13 739.426 222.604C766.732 231.713 792.52 240.321 821.212 232.682L821.52 233.836C792.481 241.564 766.526 232.906 739.048 223.737C737.625 223.263 736.202 222.789 734.774 222.315C711.969 214.748 681.719 207.088 649.936 215.13C635.041 218.897 620.731 225.142 606.894 231.182C599.506 234.406 591.865 237.741 584.218 240.664C566.054 247.598 548.397 250.942 529.511 250.942Z" fill="#FF784E"/>
<path d="M536.32 244.443C532.028 244.443 527.653 244.246 523.167 243.855C507.439 242.483 491.897 239.107 476.865 235.841C457.946 231.731 438.383 227.48 418.385 227.233C395.3 226.947 371.814 229.634 349.102 232.235C335.394 233.804 321.221 235.426 307.304 236.375C263.248 239.375 217.101 240.673 179.651 221.202C174.9 218.733 170.575 215.819 166.397 213C158.159 207.446 150.377 202.203 139.935 200.452C126.105 198.135 111.702 200.446 100.699 202.719C88.7802 205.183 76.8289 208.627 65.2713 211.959C44.3126 217.999 22.638 224.247 0.274399 224.907L0.238605 223.713C22.453 223.057 44.0531 216.833 64.9402 210.811C76.5187 207.473 88.4939 204.022 100.454 201.55C111.558 199.256 126.102 196.921 140.129 199.274C150.827 201.067 158.713 206.382 167.062 212.01C171.216 214.807 175.508 217.704 180.2 220.143C217.375 239.474 263.334 238.173 307.22 235.185C321.113 234.239 335.272 232.62 348.965 231.051C371.713 228.447 395.237 225.754 418.397 226.043C438.514 226.293 458.137 230.556 477.115 234.678C492.112 237.935 507.615 241.305 523.268 242.671C546.44 244.693 566.728 241.49 587.117 232.59C594.066 229.556 600.98 226.079 607.664 222.714C620.236 216.388 633.234 209.847 647.1 205.946C660.56 202.161 674.749 201.231 690.473 203.101C702.925 204.583 716.022 207.706 732.936 213.227C734.332 213.683 735.728 214.139 737.124 214.599C765.387 223.875 792.081 232.634 821.192 223.74L821.541 224.883C808.304 228.927 794.223 229.655 778.496 227.105C764.477 224.832 750.385 220.206 736.751 215.735C735.358 215.279 733.962 214.819 732.567 214.363C707.167 206.071 677.189 198.722 647.422 207.094C633.666 210.963 620.719 217.48 608.198 223.779C601.499 227.149 594.573 230.636 587.591 233.681C570.966 240.938 554.404 244.443 536.32 244.443Z" fill="#FF784E"/>
<path d="M541.229 237.389C537.2 237.389 533.093 237.198 528.893 236.822C512 235.301 495.452 230.752 480.853 226.738C461.042 221.292 442.95 218.592 425.543 218.491C402.115 218.345 378.275 221.327 355.207 224.206C340.518 226.04 325.328 227.934 310.43 229.002C290.005 230.463 266.266 231.859 243.041 229.899C217.187 227.719 196.169 221.73 178.789 211.589C174.077 208.839 169.907 205.633 165.872 202.531C158.012 196.488 150.589 190.783 139.992 188.841C126.388 186.347 112 188.936 100.982 191.469C89.165 194.186 77.33 197.953 65.8827 201.597C44.7838 208.314 22.9661 215.261 0.274399 215.962L0.238605 214.769C22.7632 214.071 44.5005 207.151 65.5219 200.461C76.99 196.81 88.8518 193.034 100.714 190.305C111.842 187.746 126.388 185.133 140.206 187.666C151.09 189.658 158.624 195.45 166.599 201.586C170.605 204.664 174.745 207.849 179.392 210.56C216.901 232.444 264.649 231.083 310.343 227.815C325.211 226.75 340.384 224.856 355.058 223.027C378.162 220.143 402.058 217.158 425.546 217.304C443.06 217.408 461.254 220.119 481.166 225.595C495.718 229.595 512.212 234.132 528.998 235.644C551.281 237.651 571.029 234.302 589.372 225.405C595.945 222.216 602.415 218.524 608.672 214.951C619.514 208.762 630.728 202.358 642.894 198.346C656.012 194.019 670.087 192.742 685.919 194.448C701.604 196.136 716.783 200.554 728.251 204.21C730.825 205.03 733.44 205.88 735.973 206.704C763.529 215.654 792.022 224.909 821.171 214.81L821.561 215.938C792.037 226.168 763.347 216.85 735.603 207.84C733.074 207.02 730.458 206.17 727.887 205.35C700.844 196.724 671.873 190.046 643.264 199.483C631.212 203.459 620.054 209.829 609.26 215.992C602.987 219.574 596.5 223.275 589.891 226.481C574.814 233.78 558.794 237.386 541.229 237.389Z" fill="#FF784E"/>
<path d="M544.486 229.616C540.299 229.616 535.971 229.407 531.464 228.993C515.868 227.552 501.701 223.481 484.802 218.303C465.847 212.499 448.065 209.674 430.432 209.668C430.417 209.668 430.399 209.668 430.381 209.668C415.354 209.668 400.102 211.649 385.35 213.564C382.883 213.883 380.416 214.205 377.959 214.515L375.188 214.864C354.957 217.42 334.04 220.063 313.358 221.712C292.376 223.385 267.993 224.999 244.114 222.929C217.405 220.615 195.966 214.077 178.572 202.949C173.784 199.885 169.639 196.253 165.627 192.736C158.144 186.177 151.075 179.983 140.546 177.76C127.217 174.951 113.417 177.546 101.677 180.454C89.8211 183.392 77.9593 187.484 66.4882 191.439C45.2491 198.764 23.2912 206.34 0.280366 207.008L0.244571 205.815C23.0734 205.153 44.9449 197.607 66.0975 190.311C77.5925 186.347 89.4811 182.246 101.388 179.294C113.261 176.353 127.226 173.731 140.791 176.591C151.627 178.876 158.809 185.172 166.411 191.835C170.39 195.322 174.5 198.928 179.213 201.94C216.752 225.959 268.091 224.125 313.263 220.522C333.917 218.873 354.823 216.233 375.039 213.68L377.809 213.331C380.267 213.021 382.731 212.702 385.197 212.38C399.985 210.459 415.277 208.475 430.381 208.475C430.399 208.475 430.414 208.475 430.432 208.475C448.184 208.481 466.083 211.321 485.15 217.161C501.984 222.318 516.089 226.374 531.575 227.803C554.711 229.938 573.656 226.63 591.2 217.393C597.389 214.136 603.423 210.339 609.26 206.671C619.359 200.321 629.801 193.756 641.409 189.73C654.404 185.223 668.557 183.946 684.675 185.834C699.859 187.612 714.698 191.952 727.213 195.963C729.828 196.801 732.498 197.675 735.078 198.519C763.123 207.688 792.123 217.17 821.156 205.857L821.588 206.969C811.96 210.721 802.353 212.224 792.8 212.224C773.151 212.224 753.713 205.869 734.708 199.656C732.128 198.812 729.462 197.941 726.849 197.103C699.033 188.188 669.478 181.259 641.8 190.86C630.32 194.842 619.937 201.371 609.895 207.685C604.04 211.365 597.985 215.174 591.755 218.452C582.488 223.332 572.893 226.526 562.421 228.223C556.673 229.151 550.735 229.616 544.486 229.616Z" fill="#FF784E"/>
<path d="M546.947 220.77C542.029 220.77 536.905 220.486 531.539 219.923C515.734 218.261 501.17 213.919 485.756 209.319L484.426 208.923C466.581 203.602 449.696 200.962 432.806 200.852C418.113 200.753 403.218 202.716 388.803 204.613C386.543 204.911 384.285 205.206 382.033 205.496L377.637 206.059C357.137 208.693 335.937 211.416 314.975 213.116C293.545 214.855 268.643 216.528 244.305 214.381C216.868 211.959 195.044 205.102 177.578 193.422C172.973 190.344 169.024 186.768 165.201 183.314C157.857 176.672 150.92 170.399 140.212 168.171C126.952 165.412 113.169 168.112 101.438 171.115C89.8122 174.092 78.1681 178.199 66.9088 182.172C45.5503 189.706 23.4612 197.499 0.274399 198.057L0.244571 196.864C23.2434 196.312 45.2401 188.552 66.5121 181.047C77.7953 177.066 89.4632 172.95 101.143 169.961C113.005 166.922 126.952 164.196 140.454 167.005C151.481 169.299 158.531 175.676 166 182.431C169.791 185.858 173.707 189.402 178.24 192.435C215.869 217.599 268.5 215.693 314.88 211.932C335.814 210.235 357 207.512 377.487 204.878L381.884 204.315C384.136 204.025 386.39 203.73 388.651 203.432C403.105 201.529 418.057 199.563 432.815 199.659C449.819 199.769 466.813 202.427 484.766 207.777L486.096 208.174C501.456 212.758 515.967 217.086 531.664 218.736C555.856 221.277 575.109 218.091 592.25 208.714C598.254 205.427 604.088 201.597 609.728 197.893C619.627 191.391 629.866 184.671 641.406 180.642C670.54 170.471 701.019 178.965 727.302 187.725C729.739 188.537 732.229 189.384 734.639 190.201C763.007 199.829 792.338 209.782 821.129 196.921L821.615 198.009C811.62 202.474 801.584 204.237 791.565 204.237C772.289 204.237 753.063 197.711 734.258 191.328C731.851 190.511 729.36 189.667 726.926 188.856C700.832 180.158 670.579 171.721 641.8 181.766C630.397 185.748 620.224 192.429 610.384 198.889C604.723 202.606 598.871 206.45 592.822 209.758C579.267 217.173 564.428 220.767 546.947 220.77Z" fill="#FF784E"/>
<path d="M549.664 211.154C542.586 211.154 535.78 210.498 529.379 209.656C515.931 207.888 502.608 204.926 489.723 202.063C469.537 197.577 448.664 192.936 427.154 192.897C426.99 192.897 426.826 192.897 426.662 192.897C404.298 192.897 381.559 195.57 359.562 198.158C344.449 199.936 328.823 201.773 313.469 202.725C292.227 204.043 267.537 205.251 243.339 202.907C216.254 200.282 194.514 193.646 176.871 182.625C172.669 179.997 168.905 177.027 165.269 174.155C157.416 167.951 149.998 162.093 139.133 160.279C125.732 158.042 111.997 160.742 100.326 163.677C89.1471 166.489 77.9265 170.271 67.0788 173.928C45.6338 181.158 23.4552 188.632 0.271414 189.115L0.247557 187.922C23.2524 187.442 45.3386 179.997 66.7 172.797C77.5716 169.132 88.813 165.344 100.037 162.519C111.824 159.552 125.711 156.826 139.329 159.101C150.499 160.965 158.033 166.919 166.009 173.218C169.621 176.072 173.358 179.022 177.504 181.614C215.589 205.412 267.617 204.377 313.394 201.538C328.716 200.586 344.327 198.752 359.422 196.977C381.615 194.368 404.561 191.665 427.154 191.71C448.793 191.749 469.73 196.402 489.979 200.903C502.837 203.76 516.137 206.716 529.532 208.478C547.818 210.885 569.436 211.756 591.137 199.969C597.442 196.545 603.545 192.518 609.445 188.623C619.392 182.058 629.679 175.27 641.266 171.145C670.555 160.718 700.906 169.842 727.055 179.216C729.193 179.983 731.344 180.764 733.503 181.548C762.351 192.035 792.183 202.883 821.093 187.991L821.639 189.053C808.48 195.832 793.901 197.92 777.064 195.444C762.214 193.258 747.411 187.877 733.094 182.673C730.938 181.888 728.791 181.107 726.652 180.34C700.697 171.038 670.585 161.974 641.666 172.272C630.215 176.35 619.991 183.096 610.101 189.622C604.177 193.53 598.054 197.571 591.704 201.019C577.334 208.821 563.014 211.154 549.664 211.154Z" fill="#FF784E"/>
<path d="M550.311 201.117C541.411 201.117 532.562 200.044 524.813 198.925C515.367 197.562 505.841 195.978 496.628 194.448C471.511 190.273 445.538 185.957 419.301 185.846C418.817 185.843 418.334 185.843 417.851 185.843C396.922 185.843 375.674 187.702 355.109 189.5C338.693 190.935 321.716 192.42 305.004 192.951C284.359 193.607 262.29 193.878 240.768 191.46C216.421 188.722 196.345 182.935 179.395 173.77C174.632 171.196 170.354 168.228 166.218 165.362C157.479 159.304 149.226 153.583 137.573 152.188C124.076 150.571 110.416 153.312 98.8346 156.202C88.2642 158.842 77.6342 162.272 67.3502 165.585C45.7889 172.541 23.491 179.729 0.268433 180.167L0.244571 178.974C23.2912 178.542 45.5026 171.378 66.9803 164.452C77.2823 161.129 87.9331 157.697 98.5393 155.045C110.225 152.125 124.02 149.363 137.707 151.004C149.655 152.435 158.027 158.239 166.889 164.383C170.999 167.232 175.249 170.179 179.955 172.723C217.041 192.775 263.925 193.064 304.959 191.761C321.635 191.23 338.597 189.748 354.999 188.313C376.065 186.473 397.85 184.57 419.301 184.656C445.634 184.767 471.654 189.091 496.818 193.273C506.026 194.803 515.546 196.387 524.98 197.747C549.616 201.302 567.67 201.404 587.042 191.415C594.263 187.69 601.192 183.153 607.891 178.763C618.178 172.022 628.814 165.052 640.783 160.852C654.043 156.199 668.333 155.23 684.463 157.887C699.131 160.303 713.466 165.383 726.768 170.513C728.522 171.19 730.288 171.876 732.059 172.565C761.495 184.021 791.932 195.868 821.069 179.052L821.666 180.084C808.399 187.74 793.588 190.174 776.384 187.529C761.241 185.199 746.185 179.341 731.627 173.674C729.858 172.985 728.096 172.299 726.342 171.622C699.182 161.15 670.233 151.782 641.179 161.974C629.347 166.125 618.771 173.054 608.544 179.756C601.821 184.161 594.866 188.719 587.591 192.471C578.002 197.416 567.933 200.175 556.805 200.908C554.648 201.055 552.477 201.117 550.311 201.117Z" fill="#FF784E"/>
<path d="M549.309 191.606C541.877 191.606 534.405 190.383 527.154 189.196C524.828 188.814 522.424 188.42 520.077 188.077C479.588 182.16 442.463 179.305 406.583 179.38C388.744 179.413 370.621 180.37 353.093 181.298C336.441 182.178 319.222 183.09 302.257 183.207C281.847 183.347 260.035 183.105 238.811 180.397C214.828 177.337 194.967 171.569 178.091 162.755C174.101 160.67 170.396 158.356 166.814 156.119C158.335 150.822 150.326 145.817 139.616 144.397C125.228 142.491 110.362 145.42 97.7191 148.534C87.6587 151.012 77.5239 154.141 67.72 157.169C46.0126 163.87 23.5626 170.802 0.265452 171.214L0.244571 170.021C23.3717 169.609 45.7382 162.704 67.3681 156.026C77.1868 152.996 87.3396 149.861 97.4327 147.374C110.186 144.23 125.189 141.28 139.774 143.213C150.738 144.665 158.854 149.736 167.446 155.105C171.008 157.33 174.694 159.632 178.643 161.696C215.556 180.973 261.801 182.288 302.248 182.011C319.186 181.894 336.39 180.985 353.027 180.105C370.568 179.177 388.708 178.217 406.577 178.184C442.517 178.118 479.701 180.967 520.247 186.893C522.606 187.239 525.016 187.633 527.345 188.015C535.21 189.303 543.347 190.633 551.34 190.377C561.693 190.043 572.433 187.102 583.266 181.629C590.848 177.799 598.123 173.096 605.156 168.547C614.986 162.191 625.151 155.618 636.363 151.293C667.301 139.356 697.491 149.748 725.763 161.419C727.29 162.048 728.826 162.686 730.365 163.328C760.457 175.837 791.574 188.772 821.045 170.113L821.684 171.121C808.262 179.619 793.173 182.357 775.558 179.49C760.084 176.973 744.741 170.596 729.906 164.428C728.364 163.787 726.831 163.149 725.307 162.519C697.258 150.941 667.322 140.624 636.792 152.405C625.697 156.685 615.583 163.226 605.803 169.549C598.743 174.116 591.442 178.834 583.803 182.694C572.812 188.244 561.905 191.23 551.376 191.567C550.693 191.594 550.001 191.606 549.309 191.606Z" fill="#FF784E"/>
<path d="M545.342 181.247C537.653 181.247 529.919 179.827 522.433 178.452C518.872 177.799 515.191 177.122 511.591 176.615C480.089 172.18 448.005 172.604 416.983 173.012C409.777 173.108 402.33 173.206 394.986 173.242C383.805 173.299 372.429 173.483 361.429 173.665C338.952 174.032 315.712 174.414 292.859 173.701C255.35 172.532 212.349 169.773 176.704 151.752C173.608 150.186 170.685 148.567 167.861 146.998C158.722 141.927 150.088 137.137 138.512 136.108C123.933 134.814 109.151 137.758 96.6125 140.809C87.11 143.121 77.5209 145.954 68.248 148.695C46.3437 155.167 23.6938 161.863 0.271414 162.269L0.250538 161.076C23.5119 160.67 46.0812 154.001 67.9109 147.55C77.1988 144.806 86.8027 141.966 96.3322 139.649C108.966 136.577 123.871 133.612 138.62 134.921C150.449 135.971 159.188 140.821 168.44 145.954C171.255 147.517 174.166 149.13 177.241 150.684C212.669 168.595 255.514 171.339 292.895 172.505C315.718 173.218 338.946 172.836 361.408 172.469C372.411 172.29 383.79 172.102 394.977 172.046C402.315 172.01 409.762 171.912 416.965 171.816C448.035 171.408 480.164 170.984 511.755 175.431C515.379 175.941 519.075 176.621 522.645 177.277C530.295 178.682 538.217 180.138 546.005 180.051C555.781 179.944 566.006 177.459 576.388 172.666C585.36 168.526 593.848 163.131 602.06 157.914C612.165 151.493 622.613 144.853 634.084 140.463C648.391 134.984 663.483 133.857 680.228 137.012C695.379 139.869 710.477 145.987 724.534 152.173C725.862 152.757 727.192 153.345 728.531 153.938C757.883 166.922 791.151 181.635 821.028 161.186L821.702 162.17C808.095 171.485 792.705 174.495 774.651 171.375C758.822 168.64 743.179 161.72 728.051 155.03C726.712 154.44 725.381 153.849 724.057 153.267C695.788 140.83 665.589 129.681 634.513 141.581C623.156 145.93 612.758 152.537 602.701 158.925C594.457 164.163 585.933 169.579 576.889 173.755C566.352 178.619 555.966 181.14 546.019 181.25C545.796 181.244 545.566 181.247 545.342 181.247Z" fill="#FF784E"/>
<path d="M540.463 170.793C539.756 170.793 539.052 170.781 538.348 170.757C531.578 170.522 524.813 169.123 518.272 167.769C514.344 166.955 510.282 166.113 506.282 165.541C478.123 161.505 449.574 163.355 421.964 165.144C408.659 166.006 394.897 166.898 381.311 167.128C351.909 167.623 319.998 166.68 286.47 164.321C251.523 161.863 211.321 157.855 176.49 141.31C173.862 140.063 171.3 138.629 168.821 137.242C164.538 134.844 160.109 132.368 155.322 130.853C149.798 129.108 143.606 128.073 136.922 127.781C122.821 127.164 108.826 129.917 96.9973 132.693C87.5782 134.903 78.0637 137.594 68.8654 140.192C46.7314 146.446 23.8519 152.912 0.268433 153.321L0.247557 152.128C23.6759 151.722 46.4779 145.277 68.5313 139.046C77.7446 136.442 87.268 133.752 96.7139 131.533C108.623 128.738 122.716 125.965 136.964 126.591C143.753 126.889 150.046 127.942 155.671 129.717C160.574 131.268 165.06 133.776 169.394 136.201C171.855 137.579 174.402 139.002 176.994 140.233C211.64 156.688 251.708 160.679 286.548 163.131C320.042 165.487 351.917 166.43 381.284 165.934C394.843 165.705 408.587 164.816 421.88 163.954C449.553 162.161 478.165 160.306 506.446 164.36C510.482 164.938 514.562 165.782 518.511 166.6C525.004 167.945 531.718 169.335 538.387 169.564C549.112 169.937 560.479 167.411 572.159 162.057C581.322 157.858 590.037 152.429 598.466 147.18C609.113 140.547 620.125 133.69 632.187 129.21C663.987 117.399 693.572 129.004 723.595 143.022C724.612 143.496 725.632 143.974 726.658 144.454C756.684 158.514 790.712 174.453 821.016 152.238L821.722 153.202C810.6 161.353 799.025 164.482 787.348 164.482C766.61 164.482 745.553 154.621 726.154 145.536C725.128 145.056 724.108 144.579 723.094 144.105C693.306 130.197 663.973 118.678 632.604 130.328C620.656 134.766 609.698 141.593 599.101 148.194C590.642 153.464 581.894 158.91 572.66 163.143C561.571 168.225 550.75 170.793 540.463 170.793Z" fill="#FF784E"/>
<path d="M361.417 160.876C333.175 160.876 304.124 157.875 276.824 154.598C243.837 150.64 208.899 145.056 176.916 131.13C174.512 130.084 172.159 128.92 169.88 127.796C164.798 125.288 159.996 122.916 154.514 121.616C148.769 120.253 142.64 119.567 135.777 119.516C121.974 119.412 108.182 122.123 97.7101 124.497C88.3805 126.612 78.9525 129.159 69.8347 131.62C47.3697 137.686 24.1382 143.956 0.271414 144.373L0.250538 143.18C23.9712 142.766 47.1281 136.514 69.5245 130.468C78.6543 128.005 88.0912 125.455 97.4477 123.334C107.982 120.945 121.863 118.219 135.786 118.323C142.741 118.377 148.957 119.072 154.788 120.456C160.401 121.786 165.49 124.297 170.408 126.728C172.672 127.847 175.016 129.004 177.393 130.039C209.236 143.902 244.07 149.468 276.968 153.416C305.666 156.861 336.304 160.002 365.864 159.659C383.172 159.459 400.638 157.386 417.529 155.379C443.516 152.292 470.387 149.101 497.203 152.689C502.235 153.363 507.281 154.526 512.161 155.653C518.779 157.181 525.624 158.758 532.458 159.11C542.652 159.632 553.473 157.535 564.619 152.877C575.228 148.444 585.199 142.336 594.845 136.431C604.997 130.215 615.493 123.784 626.791 119.263C642.125 113.124 657.28 111.398 671.838 114.133C688.728 117.306 704.584 125.064 718.569 131.912C720.526 132.869 722.503 133.848 724.496 134.835C755.288 150.073 790.19 167.342 821.004 143.311L821.737 144.251C810.433 153.068 798.631 156.45 786.701 156.45C765.489 156.45 743.876 145.757 723.965 135.903C721.975 134.918 720.001 133.94 718.044 132.983C704.124 126.17 688.346 118.448 671.614 115.305C657.283 112.614 642.349 114.318 627.23 120.369C616.027 124.855 605.573 131.256 595.465 137.448C585.781 143.377 575.768 149.509 565.075 153.977C553.762 158.705 542.765 160.834 532.392 160.3C525.454 159.945 518.559 158.353 511.889 156.817C507.037 155.698 502.017 154.538 497.039 153.873C470.372 150.306 443.576 153.485 417.663 156.563C400.74 158.573 383.241 160.652 365.87 160.852C364.391 160.867 362.905 160.876 361.417 160.876Z" fill="#FF784E"/>
<path d="M349.126 154.058C322.312 154.058 294.851 149.223 268.247 144.54L266.91 144.305C240.914 139.729 206.969 132.816 174.977 119.856C173.611 119.301 172.254 118.732 170.942 118.183C165.093 115.728 159.566 113.411 153.175 112.397C147.305 111.466 141.086 111.117 134.158 111.326C120.372 111.744 106.643 114.49 96.2278 116.838C87.8466 118.726 79.3582 120.909 71.153 123.018C48.2347 128.911 24.5349 135.008 0.271414 135.425L0.250538 134.232C24.3738 133.818 48.005 127.739 70.8577 121.861C79.0718 119.749 87.5663 117.563 95.9683 115.672C106.437 113.312 120.238 110.553 134.125 110.133C141.128 109.921 147.421 110.276 153.366 111.219C159.903 112.257 165.493 114.601 171.41 117.085C172.72 117.634 174.071 118.201 175.431 118.753C207.318 131.673 241.182 138.569 267.122 143.132L268.458 143.368C296.48 148.301 325.456 153.402 353.552 152.823C372.208 152.438 390.963 149.357 409.097 146.375C435.269 142.074 462.334 137.624 489.544 141.221C495.217 141.969 500.824 143.425 506.246 144.836C512.364 146.425 518.693 148.069 525.058 148.668C536.213 149.724 548.206 147.6 560.706 142.363C571.458 137.856 581.614 131.727 591.436 125.801C602.119 119.355 613.164 112.689 625.053 108.054C640.756 101.934 656.095 100.422 670.648 103.559C687.308 107.15 702.749 115.099 717.683 122.788C719.333 123.638 720.997 124.5 722.673 125.371C754.134 141.692 789.797 160.193 820.998 134.373L821.758 135.291C807.555 147.046 791.196 150.822 771.746 146.846C754.79 143.377 738.183 134.763 722.124 126.43C720.448 125.559 718.784 124.697 717.137 123.85C702.272 116.197 686.903 108.284 670.397 104.728C656.078 101.644 640.965 103.136 625.485 109.17C613.692 113.766 602.692 120.405 592.053 126.824C582.195 132.774 572.001 138.924 561.168 143.464C548.486 148.779 536.302 150.929 524.947 149.855C518.487 149.244 512.113 147.588 505.948 145.99C500.559 144.591 494.987 143.144 489.389 142.405C462.351 138.832 435.377 143.267 409.291 147.553C391.115 150.541 372.319 153.631 353.576 154.016C352.093 154.043 350.608 154.058 349.126 154.058Z" fill="#FF784E"/>
<path d="M340.509 146.503C316.016 146.503 290.95 140.8 266.696 135.285L263.328 134.519C232.205 127.459 202.152 118.872 174.002 109.003C160.864 104.394 149.235 102.563 136.299 103.064C121.58 103.634 107.225 106.452 95.1242 109.134C87.7184 110.774 80.2112 112.608 72.9485 114.38C49.4188 120.125 25.0897 126.066 0.268433 126.478L0.247557 125.285C24.9346 124.873 49.1981 118.952 72.6622 113.223C79.9278 111.448 87.444 109.614 94.8617 107.971C107.016 105.277 121.437 102.447 136.251 101.871C149.345 101.364 161.111 103.216 174.396 107.875C202.504 117.73 232.515 126.305 263.591 133.355L266.961 134.122C291.499 139.702 316.878 145.483 341.568 145.307C362.043 145.167 382.489 141 402.264 136.967C428.949 131.527 456.541 125.902 484.554 130.11C490.295 130.972 495.915 132.64 501.349 134.253C507.475 136.07 513.81 137.949 520.259 138.644C530.796 139.774 542.136 138.05 553.956 133.52C566.173 128.837 577.581 122.004 588.617 115.397C599.581 108.833 610.918 102.044 623.087 97.3286C638.084 91.5155 652.394 89.8452 665.622 92.3626C683.315 95.7299 699.564 104.484 715.276 112.949L716.562 113.64C718.011 114.419 719.47 115.212 720.943 116.009C737.204 124.813 754.02 133.919 771.15 137.573C790.629 141.728 806.929 137.758 820.977 125.437L821.764 126.334C811.066 135.718 799.097 140.362 785.466 140.365C780.81 140.365 775.96 139.822 770.902 138.742C753.606 135.053 736.712 125.905 720.377 117.059C718.906 116.262 717.445 115.472 715.998 114.693L714.713 114.001C699.081 105.578 682.915 96.8723 665.401 93.5377C652.397 91.0621 638.307 92.7145 623.522 98.4441C611.449 103.124 600.157 109.885 589.234 116.423C578.157 123.057 566.701 129.914 554.389 134.635C542.39 139.234 530.865 140.985 520.136 139.834C513.578 139.13 507.192 137.236 501.015 135.402C495.619 133.8 490.042 132.145 484.381 131.294C456.577 127.119 429.089 132.723 402.505 138.143C382.674 142.184 362.169 146.366 341.58 146.506C341.222 146.503 340.864 146.503 340.509 146.503Z" fill="#FF784E"/>
<path d="M332.909 137.865C308.858 137.865 284.52 130.984 260.957 124.324C259.579 123.933 258.207 123.546 256.841 123.161C243.724 119.465 230.484 115.391 217.682 111.451C204.016 107.246 189.885 102.894 175.878 99.0018C147.406 91.086 118.52 96.1863 93.6806 101.585C87.6081 102.906 81.44 104.329 75.4778 105.704C51.101 111.326 25.892 117.142 0.268433 117.53L0.250538 116.337C25.7488 115.949 50.8922 110.148 75.2094 104.538C81.1746 103.16 87.3456 101.737 93.4271 100.416C118.406 94.9843 147.463 89.8602 176.197 97.8476C190.222 101.746 204.359 106.097 218.034 110.306C230.83 114.246 244.064 118.317 257.166 122.01C258.532 122.394 259.904 122.782 261.285 123.173C285.396 129.988 310.328 137.039 334.833 136.654C355.35 136.335 375.865 131.593 395.702 127.006C422.853 120.727 450.928 114.237 479.43 118.988C485.446 119.99 491.241 121.959 496.845 123.865C502.649 125.836 508.65 127.876 514.824 128.801C526.245 130.513 538.685 128.777 551.797 123.644C564.011 118.863 575.455 112.03 586.523 105.417C597.025 99.145 607.882 92.6608 619.418 87.9095C635.745 81.1838 651.123 79.3047 665.121 82.3261C682.542 86.0842 698.472 95.035 713.88 103.691L716.174 104.979C718.101 106.059 720.034 107.153 721.969 108.251C737.037 116.787 752.616 125.616 769.491 129.872C788.875 134.76 806.195 130.26 820.971 116.492L821.785 117.366C810.63 127.757 798.053 132.98 784.255 132.98C779.384 132.98 774.365 132.329 769.199 131.026C752.168 126.731 736.518 117.864 721.382 109.289C719.446 108.191 717.516 107.1 715.59 106.02L713.296 104.731C697.965 96.1177 682.116 87.2146 664.87 83.4923C651.112 80.5216 635.972 82.3798 619.872 89.0131C608.419 93.7316 597.598 100.192 587.135 106.443C576.025 113.08 564.535 119.94 552.232 124.757C538.921 129.967 526.278 131.724 514.648 129.982C508.37 129.043 502.315 126.985 496.461 124.995C490.901 123.107 485.153 121.154 479.233 120.166C450.967 115.454 423.008 121.92 395.971 128.169C376.074 132.768 355.497 137.525 334.851 137.847C334.204 137.859 333.557 137.865 332.909 137.865Z" fill="#FF784E"/>
<path d="M330.031 127.918C305.472 127.918 281.137 120.083 257.578 112.498L256.245 112.069C250.163 110.112 243.989 108.042 238.018 106.041C217.569 99.1897 196.428 92.1061 174.933 88.1243C148.227 83.1791 120.59 88.1362 92.2669 94.1163C87.9004 95.038 83.4652 96.0013 79.1732 96.9319C53.5646 102.491 27.085 108.239 0.265452 108.576L0.250538 107.383C26.9508 107.046 53.3678 101.31 78.9197 95.7657C83.2117 94.8351 87.6498 93.8718 92.0193 92.9471C120.464 86.9402 148.229 81.9622 175.147 86.9491C196.724 90.9458 217.909 98.0444 238.394 104.907C244.362 106.909 250.533 108.976 256.608 110.929L257.942 111.359C282.181 119.161 307.247 127.235 332.426 126.695C352.413 126.269 372.533 121.267 391.992 116.426C419.438 109.602 447.817 102.542 476.379 108.161C482.454 109.357 488.214 111.63 493.785 113.831C499.324 116.018 505.05 118.281 511.016 119.436C522.484 121.658 535.011 120.289 548.247 115.367C561.454 110.458 573.719 103.076 585.584 95.9387C596.431 89.4128 607.646 82.6631 619.591 77.7866C636.115 71.0399 651.022 69.4084 665.169 72.8026C682.28 76.9067 697.873 86.0096 712.953 94.8113C714.027 95.4376 715.097 96.064 716.165 96.6843C717.895 97.6895 719.628 98.7066 721.364 99.7266C736.614 108.671 752.386 117.923 769.59 122.233C788.973 127.092 806.255 122.156 820.95 107.562L821.791 108.409C806.78 123.319 789.12 128.36 769.3 123.391C751.93 119.036 736.083 109.742 720.761 100.756C719.025 99.7356 717.293 98.7215 715.566 97.7163C714.498 97.093 713.424 96.4696 712.35 95.8433C697.345 87.0863 681.829 78.0282 664.888 73.9659C650.995 70.6343 636.327 72.2449 620.042 78.8961C608.183 83.7399 597.007 90.4626 586.198 96.9677C574.289 104.135 561.973 111.544 548.665 116.492C535.222 121.491 522.478 122.878 510.792 120.614C504.716 119.436 498.936 117.154 493.35 114.947C487.829 112.767 482.123 110.512 476.152 109.34C447.85 103.774 419.602 110.798 392.284 117.592C372.763 122.448 352.577 127.468 332.456 127.897C331.645 127.909 330.839 127.918 330.031 127.918Z" fill="#FF784E"/>
<path d="M332.718 117.017C332.548 117.017 332.381 117.017 332.208 117.017C302.481 116.886 274.242 106.837 246.93 97.1168C223.522 88.7864 199.316 80.1727 174.286 77.8462C146.544 75.2663 118.374 81.0615 91.1275 86.6658L91.0201 86.6867C88.9234 87.1191 86.8236 87.5516 84.7269 87.9871C57.2899 93.663 28.9193 99.5327 0.259485 99.6341L0.256504 98.4411C28.7941 98.3397 57.1049 92.4819 84.4853 86.8179C86.585 86.3824 88.6818 85.95 90.7815 85.5175L90.8889 85.4966C118.219 79.8744 146.482 74.0613 174.399 76.6562C199.578 78.9975 223.853 87.6351 247.332 95.9894C274.549 105.674 302.693 115.692 332.217 115.821C332.384 115.821 332.554 115.821 332.721 115.821C352.684 115.821 372.933 110.655 392.52 105.656C420.183 98.5962 448.793 91.2978 477.157 98.3665C482.785 99.7684 488.1 102.128 493.242 104.412C499.276 107.091 505.516 109.861 512.206 111.034C523.116 112.943 535.094 111.511 547.809 106.783C561.267 101.782 573.755 94.2446 585.831 86.9581C596.512 80.5127 607.557 73.8495 619.272 68.9252C635.688 62.0265 650.39 60.2578 664.22 63.5178C681.307 67.5443 696.814 76.7456 711.807 85.6457C712.801 86.2363 713.794 86.8239 714.781 87.4085C716.669 88.5239 718.56 89.6544 720.457 90.7877C735.489 99.7684 751.035 109.053 768.006 113.649C788.174 119.114 805.986 114.055 820.944 98.6201L821.8 99.4492C810.496 111.117 797.59 116.978 783.292 116.978C778.26 116.978 773.058 116.253 767.693 114.801C750.561 110.16 734.947 100.833 719.843 91.8108C717.946 90.6774 716.058 89.55 714.17 88.4345C713.18 87.8499 712.189 87.2593 711.193 86.6688C696.274 77.8164 680.848 68.6628 663.94 64.678C650.363 61.4777 635.903 63.2255 619.729 70.0229C608.093 74.9113 597.088 81.5536 586.443 87.9752C574.318 95.2915 561.782 102.855 548.221 107.899C535.306 112.701 523.116 114.15 511.997 112.206C505.164 111.01 498.856 108.209 492.756 105.501C487.662 103.24 482.395 100.899 476.868 99.5238C448.792 92.5296 420.333 99.7922 392.812 106.813C373.154 111.83 352.827 117.014 332.718 117.017Z" fill="#FF784E"/>
<path d="M336.835 108.352C306.102 108.352 276.505 98.3218 247.869 88.6164C224.993 80.8646 201.338 72.8474 177.28 70.0109C149.581 66.742 121.496 72.6595 94.3368 78.3801L90.1105 79.2689C60.9376 85.4131 30.7745 91.769 0.238605 90.6834L0.280366 89.4903C30.6671 90.567 60.7616 84.229 89.8629 78.0998L94.0892 77.2109C121.344 71.4694 149.527 65.534 177.417 68.8239C201.6 71.6782 225.315 79.7133 248.251 87.486C277.141 97.2749 307.02 107.395 337.944 107.153C357.319 106.998 376.888 102.113 395.813 97.3853C422.274 90.7758 449.64 83.9427 477.029 89.8691C482.538 91.0621 487.793 93.15 492.872 95.1722C498.581 97.4419 504.487 99.7922 510.702 100.827C522.162 102.736 534.838 101.233 548.373 96.3563C561.517 91.6199 573.886 84.6495 585.849 77.9089C596.261 72.0391 607.032 65.9725 618.303 61.3763C635.572 54.3344 650.044 52.4732 663.847 55.5185C681.093 59.3243 696.921 68.111 712.228 76.6114C713.159 77.1274 714.086 77.6434 715.014 78.1564C716.806 79.1496 718.602 80.1518 720.4 81.1569C735.776 89.7468 751.679 98.626 768.868 102.879C788.496 107.735 806.025 103.282 820.965 89.6454L821.77 90.5253C806.517 104.448 788.622 108.994 768.581 104.036C751.235 99.7475 735.266 90.8265 719.819 82.1978C718.02 81.1927 716.225 80.1906 714.435 79.2003C713.508 78.6873 712.58 78.1713 711.647 77.6553C696.414 69.1967 680.663 60.4517 663.588 56.6847C650.032 53.6931 635.784 55.5363 618.75 62.4799C607.548 67.0462 596.813 73.0979 586.431 78.9468C574.426 85.7114 562.012 92.7085 548.775 97.4777C535.044 102.423 522.168 103.947 510.503 102.002C504.162 100.946 498.196 98.5723 492.428 96.2787C487.393 94.2774 482.186 92.2045 476.772 91.0353C449.654 85.1685 422.429 91.9659 396.099 98.5425C377.106 103.285 357.468 108.188 337.95 108.343C337.58 108.352 337.207 108.352 336.835 108.352Z" fill="#FF784E"/>
<path d="M342.078 99.3359C316.41 99.3359 290.804 91.7869 266.033 84.4825L263.045 83.6027C258.968 82.4036 254.819 81.1599 250.807 79.9549C226.475 72.6595 201.314 65.1135 175.696 62.4172C149.288 59.6374 122.612 65.2746 96.8094 70.7238L93.4659 71.4306C64.8657 77.4555 32.4478 84.2857 0.214748 81.7355L0.310189 80.5455C32.3702 83.0837 63.3058 76.5667 93.2213 70.2644L96.5648 69.5576C122.457 64.0875 149.229 58.4295 175.825 61.2301C201.555 63.9383 226.77 71.4992 251.156 78.8126C255.168 80.0146 259.314 81.2583 263.388 82.4573L266.376 83.3372C291.201 90.6565 316.875 98.2383 342.501 98.1399C361.721 98.0772 381.031 93.3528 399.705 88.7834C425.117 82.5677 451.39 76.1372 477.876 81.3269C483.155 82.3619 488.243 84.1574 493.168 85.8933C499.011 87.9543 505.053 90.0868 511.371 90.913C522.102 92.3178 533.931 91.0234 546.523 87.0714C560.333 82.7347 573.421 76.0298 586.079 69.5456C597.123 63.8876 608.544 58.0358 620.432 53.7557C636.774 47.874 650.336 46.2724 663.116 48.7151C680.571 52.0527 696.784 60.2936 712.467 68.2631L714.355 69.2235C715.622 69.8678 716.896 70.518 718.181 71.1712C751.103 87.9513 788.416 106.971 821.001 80.6737L821.749 81.6013C806.938 93.5556 789.835 97.3554 769.467 93.2156C751.724 89.6096 734.395 80.7751 717.635 72.233C716.353 71.5798 715.079 70.9296 713.812 70.2853L711.924 69.3249C696.319 61.3942 680.18 53.192 662.89 49.8843C650.33 47.4833 636.965 49.0701 620.835 54.8742C609.015 59.1274 597.63 64.9614 586.622 70.6015C573.919 77.1095 560.786 83.8383 546.878 88.2048C534.119 92.2104 522.12 93.5198 511.215 92.0911C504.773 91.2501 498.671 89.0966 492.771 87.0118C487.889 85.2878 482.839 83.5072 477.646 82.4902C451.42 77.3511 425.272 83.7488 399.988 89.9347C381.245 94.519 361.867 99.2613 342.504 99.324C342.361 99.3359 342.218 99.3359 342.078 99.3359Z" fill="#FF784E"/>
<path d="M346.847 89.9347C321.68 89.9347 296.277 83.206 271.688 76.692C269.735 76.173 267.787 75.66 265.851 75.1499C261.888 74.106 257.855 73.0293 253.954 71.9884C229.422 65.4326 204.055 58.6532 178.428 55.8674C148.835 52.6522 119.409 58.6532 90.9515 64.4573C61.5043 70.4643 31.0549 76.6741 0.18492 72.7877L0.33405 71.6036C31.0072 75.4661 61.3611 69.2742 90.7129 63.2881C119.259 57.4661 148.781 51.4442 178.557 54.6803C204.276 57.475 229.687 64.2664 254.261 70.8341C258.159 71.8751 262.192 72.9518 266.153 73.9957C268.088 74.5057 270.036 75.0217 271.993 75.5377C297.067 82.1799 322.998 89.0519 348.565 88.7297C367.054 88.5001 385.573 84.1157 403.484 79.8774C427.562 74.1776 452.458 68.284 477.658 72.3791C483.027 73.25 488.24 74.8785 493.284 76.4533C498.978 78.231 504.865 80.0683 510.938 80.796C521.956 82.1143 533.642 80.9839 546.664 77.3422C560.399 73.5006 573.606 67.5264 586.374 61.7491C596.891 56.9919 607.765 52.0706 618.911 48.3483C636.777 42.3831 651.571 40.8381 665.47 43.4866C682.166 46.6691 697.944 53.8452 713.203 60.7887L713.373 60.8663C714.993 61.603 716.624 62.3486 718.265 63.1002C751.017 78.0938 788.138 95.0916 821.025 71.708L821.716 72.6804C809.756 81.1838 797.28 84.4557 784.679 84.4557C762.044 84.4557 738.997 73.9032 717.77 64.1859C716.129 63.4343 714.498 62.6886 712.881 61.9519L712.711 61.8744C697.518 54.9637 681.806 47.8144 665.249 44.6588C651.559 42.049 636.956 43.5821 619.293 49.4817C608.207 53.1831 597.359 58.0895 586.872 62.8378C574.062 68.633 560.813 74.628 546.992 78.4934C533.815 82.1799 521.98 83.3193 510.804 81.9831C504.624 81.2434 498.683 79.3882 492.935 77.5957C487.933 76.0328 482.758 74.4192 477.476 73.5602C452.509 69.5039 427.729 75.3677 403.767 81.0406C385.794 85.2938 367.209 89.6931 348.589 89.9258C348.004 89.9317 347.426 89.9347 346.847 89.9347Z" fill="#FF784E"/>
<path d="M350.122 80.1876C326.467 80.1876 302.347 74.5713 278.969 69.1281C275.968 68.4301 272.989 67.7352 270.033 67.0611C265.693 66.0679 261.282 65.0419 257.014 64.0487C231.271 58.0596 204.648 51.8648 177.915 49.3743C149.837 46.7585 121.932 52.157 94.9423 57.3766C64.1976 63.3239 32.409 69.4711 0.155092 63.8369L0.360893 62.6618C32.397 68.2601 64.0783 62.1309 94.7156 56.2044C121.789 50.967 149.78 45.5536 178.029 48.1842C204.842 50.6836 231.504 56.8845 257.285 62.8855C261.551 63.8787 265.962 64.9047 270.299 65.8979C273.254 66.575 276.237 67.2669 279.237 67.9678C304.148 73.766 329.903 79.764 354.951 78.917C372.187 78.3324 389.531 74.4431 406.302 70.679C430.098 65.3402 454.707 59.8223 479.501 63.6073C484.39 64.3529 489.189 65.6891 493.827 66.9806C498.969 68.4122 504.284 69.8916 509.697 70.5538C521.598 72.0123 534.372 70.9534 548.751 67.3146C561.744 64.0278 574.447 59.1065 586.732 54.3433C598.164 49.9112 609.99 45.3299 622.046 42.0639C638.656 37.5632 652.496 36.4328 665.604 38.5057C682.697 41.2109 699.072 47.7637 714.906 54.1017L718.486 55.5334C751.062 68.5584 787.986 83.3223 821.051 62.7393L821.681 63.7534C810.46 70.7387 798.121 74.1955 784.267 74.1955C779.581 74.1955 774.726 73.8018 769.679 73.0144C752.153 70.2794 734.812 63.3478 718.044 56.6429L714.465 55.2112C698.69 48.8971 682.381 42.3711 665.419 39.6838C652.484 37.6377 638.802 38.7592 622.362 43.2152C610.363 46.4662 598.57 51.0356 587.164 55.4558C574.846 60.231 562.108 65.1672 549.044 68.4689C534.519 72.1435 521.601 73.2113 509.551 71.7349C504.051 71.0608 498.691 69.5695 493.508 68.1259C488.903 66.8434 484.139 65.5191 479.322 64.7824C454.746 61.0333 430.253 66.5272 406.565 71.8393C389.737 75.6123 372.339 79.5165 354.993 80.1041C353.373 80.1607 351.745 80.1876 350.122 80.1876Z" fill="#FF784E"/>
<path d="M354.31 70.0527C330.145 70.0527 305.469 65.1344 281.558 60.3652C278.128 59.6822 274.582 58.9753 271.128 58.3012C267.232 57.5407 263.337 56.7741 259.439 56.0046C232.9 50.7642 205.454 45.3448 178.053 43.1764C151.367 41.0647 124.768 45.8876 99.0463 50.5524C66.9058 56.3804 33.6736 62.4053 0.125269 54.8802L0.387735 53.717C33.7034 61.1884 66.8163 55.1844 98.8375 49.3773C124.634 44.7005 151.311 39.8628 178.151 41.9864C205.621 44.1607 233.099 49.586 259.674 54.8324C263.57 55.602 267.465 56.3715 271.36 57.129C274.814 57.8031 278.363 58.51 281.793 59.193C307.158 64.2485 333.384 69.48 358.873 68.797C376.077 68.3377 393.301 64.7168 409.959 61.2182C431.956 56.5982 454.701 51.817 477.73 54.23C483.316 54.8145 488.822 56.118 494.146 57.3796C499.422 58.6293 504.88 59.9208 510.38 60.5024C521.568 61.6805 533.522 60.9766 546.929 58.3519C560.619 55.6735 574.122 51.3428 587.182 47.1582C598.296 43.594 609.79 39.9105 621.372 37.25C638.158 33.3935 652.093 32.3287 665.228 33.8975C682.545 35.9675 699.355 41.6732 715.613 47.188L718.408 48.1365C752.517 59.715 787.789 71.6901 821.09 53.7706L821.657 54.8205C806.547 62.9511 789.564 65.6683 769.73 63.1271C752.267 60.8901 734.86 54.9816 718.026 49.2669L715.232 48.3184C699.033 42.8215 682.28 37.1367 665.088 35.0816C652.093 33.5277 638.286 34.5865 621.64 38.4132C610.107 41.0647 598.639 44.7393 587.549 48.2946C574.459 52.4911 560.921 56.8308 547.162 59.5241C533.636 62.1697 521.565 62.8795 510.258 61.6895C504.681 61.1019 499.187 59.8015 493.872 58.5428C488.586 57.2901 483.119 55.9957 477.607 55.417C454.767 53.025 432.114 57.7822 410.207 62.3844C393.498 65.8949 376.22 69.5248 358.909 69.9871C357.376 70.0318 355.843 70.0527 354.31 70.0527Z" fill="#FF784E"/>
<path d="M358.948 59.5539C333.44 59.5539 307.536 55.3455 282.474 51.2712C279.652 50.8119 276.839 50.3556 274.033 49.9052C269.8 49.2252 265.565 48.5362 261.33 47.8472C234.534 43.4866 206.826 38.9739 179.293 37.1307C153.813 35.4217 128.255 39.7285 103.535 43.8893C69.7929 49.5711 34.9024 55.4469 0.101407 45.9264L0.417563 44.7751C34.9621 54.227 69.7214 48.3721 103.338 42.7111C128.124 38.5355 153.756 34.2197 179.374 35.9376C206.963 37.7869 234.698 42.3025 261.521 46.6691C265.756 47.358 269.988 48.047 274.221 48.7271C277.027 49.1774 279.843 49.6338 282.664 50.0931C308.124 54.23 334.448 58.504 360.296 58.3579C378.114 58.2535 395.947 54.8325 413.192 51.5247C434.637 47.4117 456.816 43.1556 479.236 45.2106C484.524 45.6937 489.773 46.7645 494.85 47.7995C499.503 48.7479 504.311 49.7262 509.116 50.2452C521.246 51.5575 534.328 51.0296 549.106 48.6346C562.075 46.5319 575.025 43.248 587.549 40.0715C598.585 37.2739 609.996 34.3807 621.396 32.2989C639.029 29.0806 654.598 28.2992 668.995 29.9128C685.259 31.7352 701.258 36.1673 716.732 40.4533L718.31 40.8918C752.377 50.3347 787.601 60.0967 821.12 44.8109L821.615 45.8966C787.703 61.3614 752.264 51.5397 717.993 42.0401L716.416 41.6016C700.987 37.3275 685.033 32.9103 668.864 31.0969C654.586 29.4982 639.127 30.2737 621.614 33.471C610.253 35.5439 598.859 38.4341 587.845 41.2258C575.297 44.4082 562.319 47.6981 549.297 49.8097C534.411 52.2227 521.228 52.7506 508.987 51.4263C504.129 50.9014 499.291 49.9141 494.611 48.9627C489.565 47.9337 484.348 46.8719 479.126 46.3947C456.872 44.3575 434.78 48.5958 413.416 52.6939C396.117 56.0136 378.23 59.4436 360.302 59.5509C359.851 59.5509 359.398 59.5539 358.948 59.5539Z" fill="#FF784E"/>
<path d="M358.584 48.6823C333.727 48.6823 308.482 45.4134 284.039 42.2518C280.884 41.8432 277.734 41.4346 274.591 41.0349C270.4 40.501 266.212 39.9612 262.022 39.4184C235.056 35.9377 207.172 32.3376 179.571 30.8911C150.21 29.355 122.761 34.1242 93.6985 39.1738L93.609 39.1887C65.7992 44.0205 32.9369 47.537 0.0745651 36.9696L0.438443 35.8333C33.0562 46.3231 65.7366 42.8245 93.4062 38.0165L93.4957 38.0016C122.627 32.9401 150.138 28.159 179.633 29.704C207.282 31.1506 235.187 34.7536 262.177 38.2372C266.367 38.7771 270.555 39.3199 274.746 39.8508C277.889 40.2505 281.039 40.6591 284.194 41.0677C309.436 44.3337 335.531 47.713 361.134 47.4773C378.907 47.3133 396.764 44.4023 414.033 41.5867C435.201 38.1358 457.09 34.5657 479.081 36.0062C484.652 36.3701 490.209 37.2947 495.581 38.1895C499.962 38.9173 504.493 39.6719 508.993 40.1133C521.148 41.3093 534.301 41.0379 549.205 39.2901C562.23 37.763 575.332 35.2785 588.003 32.8745C599.149 30.7598 610.676 28.5736 622.124 27.0435C657.721 22.2833 690.139 27.5714 717.155 33.3726L718.181 33.5933C752.222 40.9037 787.425 48.4646 821.168 35.8452L821.585 36.9637C808.289 41.9357 794.787 43.8117 781.237 43.8117C760.072 43.8117 738.788 39.2394 717.931 34.7595L716.905 34.5388C689.99 28.7585 657.697 23.4912 622.282 28.2276C610.867 29.7547 599.357 31.938 588.226 34.0467C575.535 36.4536 562.412 38.9411 549.345 40.4742C534.357 42.2339 521.121 42.5024 508.88 41.3004C504.341 40.853 499.789 40.0984 495.387 39.3647C490.045 38.4758 484.518 37.5572 479.006 37.1963C457.156 35.7647 435.332 39.3229 414.23 42.7648C396.919 45.5864 379.017 48.5063 361.152 48.6704C360.293 48.6793 359.434 48.6823 358.584 48.6823Z" fill="#FF784E"/>
<path d="M352.872 37.4707C330.115 37.4707 307.014 35.1622 284.603 32.9252C280.09 32.4748 275.426 32.0096 270.859 31.5711C267.641 31.2639 264.426 30.9537 261.208 30.6405C234.755 28.0874 207.398 25.4448 180.4 24.389C150.094 23.2049 121.681 27.9651 94.2085 32.5673C75.8983 35.6364 60.8302 36.904 46.7881 36.561C29.8738 36.1464 14.5879 33.3517 0.0536847 28.0159L0.465286 26.8974C33.7094 39.0992 66.4077 36.0182 94.0117 31.3922C121.544 26.7781 150.013 22.0089 180.445 23.1989C207.479 24.2548 234.85 26.8974 261.321 29.4535C264.539 29.7637 267.754 30.0739 270.973 30.384C275.542 30.8225 280.207 31.2878 284.719 31.7381C309.502 34.2137 335.131 36.7728 360.161 36.1971C377.514 35.7975 395.037 33.5933 411.981 31.4608C433.396 28.7675 455.539 25.9847 477.599 26.799C483.963 27.0346 490.34 27.8369 496.508 28.6154C501.191 29.2059 506.035 29.8173 510.828 30.1723C522.206 31.0164 534.456 30.9328 548.277 29.9158C561.762 28.9255 575.398 27.1449 588.587 25.421C600.616 23.8492 613.056 22.2266 625.36 21.2036C652.776 18.9249 681.069 20.3804 717.099 25.928L718.029 26.0712C752.043 31.3116 787.217 36.728 821.206 26.8825L821.538 28.0278C787.294 37.9479 751.989 32.5106 717.847 27.2493L716.917 27.1062C680.985 21.5734 652.776 20.1179 625.458 22.3907C613.182 23.4107 600.756 25.0332 588.742 26.6021C575.538 28.326 561.887 30.1096 548.367 31.1028C534.486 32.1229 522.179 32.2064 510.741 31.3594C505.915 31.0014 501.057 30.39 496.359 29.7965C490.218 29.024 483.868 28.2217 477.554 27.989C455.593 27.1777 433.498 29.9545 412.13 32.6419C395.153 34.7774 377.601 36.9845 360.188 37.3842C357.754 37.4439 355.315 37.4707 352.872 37.4707Z" fill="#FF784E"/>
<path d="M54.8531 29.2864C34.4789 29.2864 16.7861 25.9191 0.0328088 19.0591L0.486161 17.9555C26.9955 28.8092 55.9119 30.8434 94.2443 24.556C121.637 20.0642 149.959 15.4203 180.137 16.1749C204.559 16.7863 229.401 18.5789 253.423 20.3088C286.634 22.7038 320.976 25.1794 354.736 24.5769C372.864 24.2548 391.24 22.677 409.011 21.1499C431.153 19.253 454.054 17.2844 476.722 17.7259C486.12 17.9078 495.59 18.4924 504.746 19.0561C518.958 19.933 533.656 20.8367 548.301 20.2492C561.851 19.7033 575.604 18.6266 588.9 17.5857C601.022 16.6372 613.555 15.6559 625.909 15.0773C653.426 13.7918 683.342 14.7701 717.373 18.0748L717.743 18.1106C751.78 21.4124 786.978 24.8274 821.251 17.9227L821.487 19.0919C787.041 26.0354 751.754 22.6114 717.627 19.2977L717.257 19.2619C683.288 15.9661 653.426 14.9878 625.968 16.2704C613.629 16.846 601.108 17.8273 588.996 18.7757C575.687 19.8167 561.926 20.8934 548.352 21.4422C533.645 22.0327 518.916 21.126 504.675 20.2492C495.53 19.6854 486.075 19.1038 476.701 18.9219C454.099 18.4834 431.228 20.446 409.112 22.3459C391.324 23.873 372.927 25.4538 354.757 25.7759C320.94 26.3754 286.572 23.8969 253.333 21.5018C229.327 19.7719 204.499 17.9824 180.105 17.3709C150.043 16.6163 121.774 21.2513 94.4352 25.7342C80.0501 28.0934 66.9774 29.2864 54.8531 29.2864Z" fill="#FF784E"/>
<path d="M57.6269 21.8359C53.8778 21.8359 50.2241 21.7166 46.6539 21.475C29.8618 20.3506 14.6058 16.6313 0.0149094 10.1053L0.501075 9.01666C27.3952 21.0455 56.3682 23.6135 94.4472 17.3411C99.44 16.5179 104.51 15.6082 109.411 14.7284C117.198 13.3295 125.251 11.8829 133.227 10.7496C149.202 8.4798 164.878 8.32768 179.442 8.50664C202.754 8.78999 226.457 9.67582 249.379 10.5318C280.788 11.707 313.269 12.9209 345.207 12.5988C364.683 12.4049 384.473 11.537 403.609 10.6989C427.118 9.66985 451.429 8.60506 475.379 8.77507C485.774 8.84964 496.314 9.21948 506.509 9.57441C520.184 10.0546 534.325 10.5497 548.271 10.335C561.89 10.1262 575.729 9.64599 589.115 9.18071C601.302 8.75718 613.901 8.31873 626.302 8.08907C654.992 7.55519 684.833 8.02346 717.528 9.52072C751.533 11.0806 786.698 12.6912 821.305 8.96L821.433 10.1471C786.734 13.8873 751.524 12.2737 717.471 10.7138C684.8 9.2165 654.986 8.74823 626.32 9.28212C613.93 9.51178 601.335 9.95022 589.154 10.3737C575.762 10.839 561.917 11.3192 548.286 11.528C534.313 11.7398 520.154 11.2447 506.464 10.7675C496.279 10.4095 485.744 10.0427 475.368 9.96812C451.45 9.79811 427.151 10.8629 403.657 11.8919C384.511 12.73 364.713 13.5979 345.216 13.7918C313.248 14.111 280.756 12.897 249.331 11.7219C226.415 10.8659 202.722 9.98004 179.425 9.6967C164.908 9.52072 149.285 9.66986 133.391 11.9277C125.439 13.0581 117.395 14.5017 109.62 15.9005C104.713 16.7804 99.6428 17.6931 94.638 18.5163C81.1716 20.7383 68.9608 21.8359 57.6269 21.8359Z" fill="#FF784E"/>
<path d="M59.2017 14.099C54.8918 14.099 50.6953 13.932 46.5942 13.6009C29.8678 12.2438 14.6267 8.1696 0 1.14855L0.515989 0.0718346C27.3922 12.9746 57.2899 16.0139 94.6142 9.64003C99.9978 8.72139 105.459 7.68941 110.738 6.69023C118.117 5.29437 125.747 3.85079 133.302 2.69056C148.713 0.325356 164.04 0.00621719 178.294 0.0181476C199.972 0.0330606 222.01 0.0867473 243.324 0.134469C272.037 0.203069 301.729 0.271668 330.932 0.253772C387.202 0.217981 444.414 0.164295 499.741 0.113591C541.99 0.074817 584.236 0.0360423 626.484 0.00323368C650.428 -0.0146619 674.773 0.0449907 698.314 0.10166C738.645 0.200086 780.348 0.301494 821.362 0.0151644L821.371 1.20821C780.351 1.49454 738.645 1.39313 698.311 1.2947C674.769 1.23803 650.425 1.17838 626.484 1.19628C584.236 1.22908 541.987 1.26786 499.741 1.30663C444.414 1.35734 387.202 1.41102 330.932 1.44681C301.729 1.46769 272.034 1.39611 243.321 1.32751C222.007 1.27681 199.969 1.2261 178.291 1.21119C164.079 1.19628 148.811 1.51541 133.48 3.87167C125.946 5.02892 118.326 6.46952 110.956 7.8624C105.671 8.86157 100.207 9.89653 94.811 10.8152C81.9709 13.0104 70.2075 14.099 59.2017 14.099Z" fill="#FF784E"/>
</svg>
