<svg width="79" height="83" viewBox="0 0 79 83" fill="none" xmlns="http://www.w3.org/2000/svg">
<rect x="25.6588" y="46.5817" width="27.262" height="4.23467" rx="2.11734" fill="#FE4A12"/>
<rect x="22.4515" y="38.1123" width="33.6766" height="4.23467" rx="2.11734" fill="#FE4A12"/>
<path d="M39.29 14.3979C47.8884 14.3979 54.9063 20.831 55.3083 28.9104C55.3284 29.3143 54.9986 29.6428 54.5941 29.6428H23.9858C23.5814 29.6428 23.2516 29.3143 23.2717 28.9104C23.6737 20.831 30.6915 14.3979 39.29 14.3979Z" fill="#FE4A12"/>
<mask id="mask0_1174_516" style="mask-type:alpha" maskUnits="userSpaceOnUse" x="0" y="0" width="79" height="83">
<path d="M63.745 0C65.3341 0 67.3178 0.831681 67.3534 0.84668C68.7387 1.35462 69.5215 1.87682 70.5604 2.54102C71.5995 3.24438 73.4959 5.10503 74.3427 6.08203C75.1507 7.05893 76.2281 8.62179 76.7284 9.59863C77.1902 10.5755 77.8062 12.3345 78.1141 13.5068C78.4989 15.1875 78.6522 20.3072 78.6522 36.7578C78.6522 55.5934 78.5756 58.1338 77.9598 60.5957C77.6134 62.1197 76.7287 64.191 76.036 65.2461C75.3817 66.3012 73.8419 68.0201 72.6874 69.1143C71.5328 70.1693 69.6854 71.4588 68.6464 71.9668C67.5687 72.4748 65.529 73.1786 64.0282 73.4912C61.873 73.9601 57.9457 74.0771 28.4296 74.0771L22.4647 78.5713C16.6925 82.9086 16.4609 83.0654 14.7294 82.9873C13.2672 82.8701 12.7664 82.6741 12.1122 81.7754C11.4582 80.8377 11.2655 79.9772 11.0731 72.71L9.30261 71.7324C8.34037 71.1851 6.5314 69.7786 5.2616 68.6064C3.72236 67.1997 2.56796 65.6753 1.83679 64.1123C1.1826 62.7055 0.56671 60.4781 0.335815 58.6416C0.0279469 56.5703 -0.0487706 48.4809 0.0281982 34.6084C0.143647 13.9373 0.181634 13.6628 1.0282 11.3574C1.52848 10.0679 2.49133 8.23089 3.22253 7.25391C3.91515 6.27719 5.0689 4.98762 5.7616 4.3623C6.49277 3.77617 8.30214 2.64287 9.76453 1.93945C11.2268 1.19704 13.4974 0.454262 14.7675 0.258789C16.0373 0.0634269 62.129 1.80351e-05 63.745 0ZM38.8885 10.1631C27.726 10.1633 18.5771 18.7413 17.7108 29.6426H11.8895C11.0807 29.6426 10.4248 30.2986 10.4247 31.1074V33.2598C10.4248 34.0686 11.0807 34.7246 11.8895 34.7246H12.2196C12.5758 35.0627 12.9943 35.4652 13.3055 35.7812C13.8055 36.211 14.1901 36.9921 14.1903 37.5391C14.1903 38.0861 14.8062 42.0725 15.4989 46.4492C16.2301 50.7865 17.0384 54.8899 17.2694 55.5156C17.5004 56.1409 18.2696 57.2742 18.9237 58.0166C19.6164 58.7199 20.8485 59.658 21.6952 60.0488C23.119 60.7129 24.6604 60.5957 39.0135 60.5957C48.1326 60.5957 54.4776 60.3672 55.326 60.1328C56.0957 59.8984 58.0248 59.345 58.91 58.5244C59.7566 57.7429 60.4508 56.4302 60.9393 55.4746C61.2087 54.8103 62.0654 51.4124 62.7196 47.583C63.3738 43.7924 63.9899 39.9623 64.1053 39.1025C64.1823 38.2429 64.4897 37.0315 64.7206 36.4453C64.9899 35.8592 65.4013 35.5156 65.7499 35.1475C65.9502 34.936 66.151 34.8304 66.3514 34.7246H66.6913C67.5 34.7244 68.156 34.0684 68.1561 33.2598V31.1074C68.156 30.2987 67.5 29.6428 66.6913 29.6426H60.0663C59.2 18.7412 50.0513 10.1631 38.8885 10.1631Z" fill="url(#paint0_linear_1174_516)"/>
</mask>
<g mask="url(#mask0_1174_516)">
<rect x="0.000640869" y="0.00012207" width="78.5788" height="74.5302" rx="11.2294" fill="#FE4A12"/>
</g>
<path d="M23.0545 78.2614L29.6682 73.4529L10.4244 71.9895C10.6377 79.7667 10.8511 80.6865 11.5764 81.69C12.3018 82.6517 12.8565 82.8608 14.4779 82.9862C16.3981 83.0698 16.6541 82.9026 23.0545 78.2614Z" fill="#FE4A12"/>
<defs>
<linearGradient id="paint0_linear_1174_516" x1="39.3268" y1="0" x2="39.3268" y2="82.9998" gradientUnits="userSpaceOnUse">
<stop stop-color="white"/>
<stop offset="1" stop-color="#DDDDDD"/>
</linearGradient>
</defs>
</svg>
